<?xml version="1.0" encoding="UTF-8"?>
<!-- Generator: visioncortex VTracer 0.6.12 -->
<svg version="1.1" xmlns="http://www.w3.org/2000/svg" width="590" height="158">
<path d="M0 0 C194.7 0 389.4 0 590 0 C590 52.14 590 104.28 590 158 C395.3 158 200.6 158 0 158 C0 105.86 0 53.72 0 0 Z " fill="#FDFEFE" transform="translate(0,0)"/>
<path d="M0 0 C68.31 0 136.62 0 207 0 C207 52.14 207 104.28 207 158 C138.69 158 70.38 158 0 158 C0 105.86 0 53.72 0 0 Z " fill="#0C3042" transform="translate(0,0)"/>
<path d="M0 0 C2.97 0 5.94 0 9 0 C15.28964222 12.1809872 20.87509488 24.60641923 26.3125 37.1875 C27.50949553 39.95408822 28.70783889 42.72005333 29.91044617 45.48420715 C30.65061932 47.18562588 31.38763533 48.88842286 32.1209259 50.59281921 C33.85185305 54.57333899 35.64043249 58.33952151 38 62 C40.54136875 56.38488856 43.08244941 50.76964687 45.62329102 45.15429688 C46.4832426 43.25387256 47.34326579 41.35348064 48.20336914 39.453125 C54.15211395 26.30949692 60.08496323 13.15883312 66 0 C68.97 0 71.94 0 75 0 C75 29.37 75 58.74 75 89 C72.36 89 69.72 89 67 89 C66.67 66.56 66.34 44.12 66 21 C64.185 25.125 64.185 25.125 55 46 C52.44690811 51.69202073 49.88926353 57.3812713 47.3125 63.0625 C46.68803152 64.44200319 46.06368291 65.82156066 45.43945312 67.20117188 C43.9609933 70.46806411 42.48099567 73.73425642 41 77 C38.69 77 36.38 77 34 77 C32.02803359 72.66674523 30.05663656 68.33323198 28.08569336 63.99951172 C27.41982167 62.53557906 26.75381324 61.07170858 26.08764648 59.60791016 C20.69269719 47.75294944 15.3449959 35.87776867 10 24 C9.67 45.45 9.34 66.9 9 89 C6.03 89 3.06 89 0 89 C0 59.63 0 30.26 0 0 Z " fill="#BABEBF" transform="translate(102,32)"/>
<path d="M0 0 C10.34187999 -0.37224294 18.653441 3.33288786 27.62109375 8.16015625 C27.62109375 12.42842498 27.24495862 13.09898057 24.62109375 16.16015625 C21.22772438 15.47038257 18.47052949 14.11707237 15.37109375 12.59765625 C7.32052531 9.20378916 -1.55341841 8.5495802 -10.03515625 10.89453125 C-14.18944995 12.78566495 -17.34597096 15.09428567 -19.37890625 19.16015625 C-20.19008979 24.72255769 -20.5132446 29.42320066 -17.37890625 34.22265625 C-10.82601737 38.45473032 -3.52016573 39.90262875 3.99609375 41.53515625 C22.36576781 45.78620061 22.36576781 45.78620061 28.24609375 53.16015625 C32.09897586 59.73851463 31.59961248 66.76286219 29.98828125 74.00390625 C27.84535786 80.4133708 24.56775818 84.03033287 18.62109375 87.16015625 C6.96551052 92.71043398 -6.24860078 92.76451509 -18.54296875 89.2109375 C-23.41011387 87.40754626 -28.24438175 85.33280263 -32.37890625 82.16015625 C-33.30078125 80.140625 -33.30078125 80.140625 -33.37890625 78.16015625 C-31.44140625 75.41015625 -31.44140625 75.41015625 -29.37890625 73.16015625 C-26.55683651 74.52996988 -23.88305923 76.05202842 -21.19140625 77.66015625 C-12.39931095 82.51442385 -2.1080423 83.82103716 7.69140625 81.40234375 C12.65990803 79.71967782 16.15326471 78.21627771 19.62109375 74.16015625 C21.16763697 69.5205266 21.23149145 65.00075196 20.62109375 60.16015625 C15.11173968 51.89612514 2.82031227 50.97685782 -6.24609375 49.14257812 C-13.59648255 47.56967637 -21.00025484 45.72929999 -25.81640625 39.53515625 C-26.28949219 38.94476563 -26.76257813 38.354375 -27.25 37.74609375 C-30.97516584 32.51281579 -29.81820881 25.31039213 -29.37890625 19.16015625 C-27.74041257 12.41832874 -22.88823066 8.07167283 -17.37890625 4.16015625 C-11.68050824 1.10744303 -6.31707887 0.42528774 0 0 Z " fill="#F3F7F8" transform="translate(54.37890625,30.83984375)"/>
<path d="M0 0 C2.64 0 5.28 0 8 0 C10.03433406 2.28548641 11.16053012 3.85948766 12.5 6.5 C12.84546875 7.12003906 13.1909375 7.74007812 13.546875 8.37890625 C14.39181964 9.90450073 15.19971488 11.45051179 16 13 C19.03251447 9.3622568 21.22415126 5.8220545 23.265625 1.57421875 C25 0 25 0 33 0 C33 10.56 33 21.12 33 32 C30.69 32 28.38 32 26 32 C25.67 25.07 25.34 18.14 25 11 C23.02 14.63 21.04 18.26 19 22 C17.35 22 15.7 22 14 22 C11.14871085 18.60271931 9.2339001 14.85457271 7 11 C6.67 17.93 6.34 24.86 6 32 C4.02 32 2.04 32 0 32 C0 21.44 0 10.88 0 0 Z " fill="#235266" transform="translate(405,25)"/>
<path d="M0 0 C2.31 0 4.62 0 7 0 C7.33 3.3 7.66 6.6 8 10 C8.66 9.34 9.32 8.68 10 8 C14.19216724 7.52541503 16.30057329 7.54385214 19.875 9.875 C23.27751277 13.27751277 23.23568175 15.58103797 23.375 20.3125 C23.32699823 24.65185981 23.27452185 26.54532318 21 30.3125 C16.89398994 32.62213066 14.67398355 32.52770782 10 32 C9.01 31.34 8.02 30.68 7 30 C7 30.66 7 31.32 7 32 C4.69 32 2.38 32 0 32 C0 21.44 0 10.88 0 0 Z " fill="#355D6E" transform="translate(277,25)"/>
<path d="M0 0 C2.31 0 4.62 0 7 0 C7.33 3.3 7.66 6.6 8 10 C8.66 9.34 9.32 8.68 10 8 C14.19216724 7.52541503 16.30057329 7.54385214 19.875 9.875 C23.16668098 13.16668098 23.20550662 15.24557214 23.3125 19.8125 C23.28807725 23.88621435 23.22391249 25.61934877 21.125 29.1875 C17.40782986 32.35802747 14.84336473 32.25491393 10 32 C9.01 31.34 8.02 30.68 7 30 C7 30.66 7 31.32 7 32 C4.69 32 2.38 32 0 32 C0 21.44 0 10.88 0 0 Z " fill="#2A586D" transform="translate(305,25)"/>
<path d="M0 0 C1.98 0 3.96 0 6 0 C6 10.56 6 21.12 6 32 C4.02 32 2.04 32 0 32 C-0.33 31.34 -0.66 30.68 -1 30 C-1.53625 30.33 -2.0725 30.66 -2.625 31 C-5.72046073 32.30335189 -7.66574641 32.47632194 -11 32 C-16.80707066 27.09625144 -16.80707066 27.09625144 -17.203125 22.79296875 C-17.36160496 13.9841244 -17.36160496 13.9841244 -14 10 C-10.31282562 7.54188375 -8.35654296 7.68881836 -4 8 C-3.01 8.66 -2.02 9.32 -1 10 C-0.67 6.7 -0.34 3.4 0 0 Z " fill="#1B4C61" transform="translate(544,25)"/>
<path d="M0 0 C3.16139372 2.31321492 3.72608104 4.11111466 4.5625 7.875 C3.28375 7.936875 2.005 7.99875 0.6875 8.0625 C-0.03179687 8.09730469 -0.75109375 8.13210937 -1.4921875 8.16796875 C-2.13414062 8.07128906 -2.77609375 7.97460938 -3.4375 7.875 C-4.0975 6.885 -4.7575 5.895 -5.4375 4.875 C-8.5625 4.6875 -8.5625 4.6875 -11.4375 4.875 C-11.4375 6.195 -11.4375 7.515 -11.4375 8.875 C-10.53386719 9.20113281 -9.63023437 9.52726562 -8.69921875 9.86328125 C-8.10947266 10.08177734 -8.10947266 10.08177734 -5.125 11.1875 C-3.95324219 11.61675781 -2.78148437 12.04601563 -1.57421875 12.48828125 C2.90306761 14.46765442 2.90306761 14.46765442 4.5625 16.875 C5.18549536 19.92262596 5.0666362 22.81140309 4.5625 25.875 C2.25170816 29.17613121 0.40869314 30.11825803 -3.4375 30.875 C-8.46603559 31.38117272 -12.3534794 31.36946554 -17 29.25 C-19.8778563 26.44593489 -20.25779582 24.82849203 -20.4375 20.875 C-17.0625 20.6875 -17.0625 20.6875 -13.4375 20.875 C-12.7775 21.865 -12.1175 22.855 -11.4375 23.875 C-9.4921875 24.16796875 -9.4921875 24.16796875 -7.3125 24.0625 C-6.03375 24.000625 -4.755 23.93875 -3.4375 23.875 C-3.4375 22.555 -3.4375 21.235 -3.4375 19.875 C-4.34113281 19.54886719 -5.24476563 19.22273438 -6.17578125 18.88671875 C-6.76552734 18.66822266 -6.76552734 18.66822266 -9.75 17.5625 C-10.92175781 17.13324219 -12.09351563 16.70398438 -13.30078125 16.26171875 C-17.78384064 14.27979337 -17.78384064 14.27979337 -19.4375 11.875 C-20.05009949 8.82855928 -19.96257298 5.93412087 -19.4375 2.875 C-14.53600597 -2.53354514 -6.4370925 -2.10668482 0 0 Z " fill="#204F65" transform="translate(239.4375,26.125)"/>
<path d="M0 0 C0.41185547 0.08121094 0.41185547 0.08121094 2.49609375 0.4921875 C6.37219122 1.05394076 10.15681159 1.14688061 14.0625 1.125 C14.40958008 1.12693359 14.40958008 1.12693359 16.16601562 1.13671875 C19.90333371 1.12962033 23.36710894 0.89228903 27 0 C27 0.66 27 1.32 27 2 C28.175625 2.226875 29.35125 2.45375 30.5625 2.6875 C35.08542381 3.83630658 38.71320579 5.64036825 42 9 C43.4375 12.3125 43.4375 12.3125 44 15 C42.35 15 40.7 15 39 15 C38.835 15.825 38.835 15.825 38 20 C35 16.25 35 16.25 35 14 C28.13548525 10.28172118 22.06050512 8.45875467 14.3125 8.5625 C13.92312256 8.56519897 13.92312256 8.56519897 11.95263672 8.57885742 C3.36321902 8.80192483 -5.23682667 10.4067595 -12 16 C-13.875 15.3125 -13.875 15.3125 -16 14 C-16.7211874 12.35619011 -17.39401025 10.68967412 -18 9 C-6.66287016 2.29612756 -6.66287016 2.29612756 0 2 C0 1.34 0 0.68 0 0 Z " fill="#788D97" transform="translate(39,120)"/>
<path d="M0 0 C0.46792969 -0.01417969 0.46792969 -0.01417969 2.8359375 -0.0859375 C6.67101234 0.54787039 8.12765761 1.36019027 10.625 4.375 C11.23425091 7.81193672 11.09573988 11.14859159 10.9375 14.625 C10.91494141 15.56085937 10.89238281 16.49671875 10.86914062 17.4609375 C10.81030595 19.76725674 10.72817146 22.07030838 10.625 24.375 C8.645 24.375 6.665 24.375 4.625 24.375 C4.295 23.715 3.965 23.055 3.625 22.375 C2.635 23.035 1.645 23.695 0.625 24.375 C-6.35263578 25.03953674 -6.35263578 25.03953674 -9.875 22.75 C-11.84442769 19.63173949 -12.05427401 17.99779473 -11.375 14.375 C-9.08390915 11.45188409 -7.24260721 10.52000739 -3.59375 9.91015625 C-0.85161291 9.65219748 1.87280378 9.47139917 4.625 9.375 C3.965 8.055 3.305 6.735 2.625 5.375 C0.975 5.375 -0.675 5.375 -2.375 5.375 C-2.705 6.365 -3.035 7.355 -3.375 8.375 C-5.355 8.375 -7.335 8.375 -9.375 8.375 C-9.0625 5.5 -9.0625 5.5 -8.375 2.375 C-5.08324607 0.18049738 -3.8512457 0.05275679 0 0 Z " fill="#275467" transform="translate(567.375,32.625)"/>
<path d="M0 0 C0.46792969 -0.01417969 0.46792969 -0.01417969 2.8359375 -0.0859375 C6.67101234 0.54787039 8.12765761 1.36019027 10.625 4.375 C11.23425091 7.81193672 11.09573988 11.14859159 10.9375 14.625 C10.91494141 15.56085937 10.89238281 16.49671875 10.86914062 17.4609375 C10.81030595 19.76725674 10.72817146 22.07030838 10.625 24.375 C8.645 24.375 6.665 24.375 4.625 24.375 C4.295 23.715 3.965 23.055 3.625 22.375 C2.635 23.035 1.645 23.695 0.625 24.375 C-6.35263578 25.03953674 -6.35263578 25.03953674 -9.875 22.75 C-11.84442769 19.63173949 -12.05427401 17.99779473 -11.375 14.375 C-9.12089864 11.59494166 -7.33839044 10.55002819 -3.81640625 9.91015625 C-1.33317238 9.65302707 1.13076581 9.47186346 3.625 9.375 C3.295 8.055 2.965 6.735 2.625 5.375 C0.645 5.375 -1.335 5.375 -3.375 5.375 C-3.375 6.365 -3.375 7.355 -3.375 8.375 C-5.355 8.375 -7.335 8.375 -9.375 8.375 C-9.0625 5.5 -9.0625 5.5 -8.375 2.375 C-5.08324607 0.18049738 -3.8512457 0.05275679 0 0 Z " fill="#225367" transform="translate(483.375,32.625)"/>
<path d="M0 0 C0.46792969 -0.01417969 0.46792969 -0.01417969 2.8359375 -0.0859375 C6.67101234 0.54787039 8.12765761 1.36019027 10.625 4.375 C11.23425091 7.81193672 11.09573988 11.14859159 10.9375 14.625 C10.91494141 15.56085937 10.89238281 16.49671875 10.86914062 17.4609375 C10.81030595 19.76725674 10.72817146 22.07030838 10.625 24.375 C8.645 24.375 6.665 24.375 4.625 24.375 C4.295 23.715 3.965 23.055 3.625 22.375 C2.635 23.035 1.645 23.695 0.625 24.375 C-6.35263578 25.03953674 -6.35263578 25.03953674 -9.875 22.75 C-11.84442769 19.63173949 -12.05427401 17.99779473 -11.375 14.375 C-9.12089864 11.59494166 -7.33839044 10.55002819 -3.81640625 9.91015625 C-1.33317238 9.65302707 1.13076581 9.47186346 3.625 9.375 C3.295 8.055 2.965 6.735 2.625 5.375 C0.975 5.375 -0.675 5.375 -2.375 5.375 C-2.705 6.365 -3.035 7.355 -3.375 8.375 C-5.355 8.375 -7.335 8.375 -9.375 8.375 C-9.0625 5.5 -9.0625 5.5 -8.375 2.375 C-5.08324607 0.18049738 -3.8512457 0.05275679 0 0 Z " fill="#26556A" transform="translate(343.375,32.625)"/>
<path d="M0 0 C3.06881816 1.71904752 5.40357084 3.80714167 7 7 C7 8.98 7 10.96 7 13 C1.72 13 -3.56 13 -9 13 C-8.34 14.65 -7.68 16.3 -7 18 C-5.02 18 -3.04 18 -1 18 C-0.67 17.34 -0.34 16.68 0 16 C2.31 16 4.62 16 7 16 C6.10368306 19.01488424 5.32087126 20.71802222 2.9375 22.8125 C-1.11585142 24.45108887 -4.6863846 24.72024068 -9 24 C-12.33600367 21.94161475 -13.8262176 20.2606736 -16 17 C-16.61043233 12.76661218 -16.45876307 9.05515507 -14.75 5.125 C-10.49558034 -0.04108101 -6.630275 -1.26181704 0 0 Z " fill="#14485F" transform="translate(265,33)"/>
<path d="M0 0 C2.31 0 4.62 0 7 0 C7.33 0.66 7.66 1.32 8 2 C8.99 1.34 9.98 0.68 11 0 C14.67400407 -0.40080044 17.02624073 -0.61010758 20.20703125 1.3828125 C23.00087406 5.46097085 22.4253427 9.4348196 22.25 14.25 C22.23195313 15.18585937 22.21390625 16.12171875 22.1953125 17.0859375 C22.14825673 19.39167015 22.08253713 21.69530945 22 24 C20.02 24 18.04 24 16 24 C15.67 18.39 15.34 12.78 15 7 C10 6 10 6 8 7 C7.67 12.61 7.34 18.22 7 24 C4.69 24 2.38 24 0 24 C0 16.08 0 8.16 0 0 Z " fill="#295669" transform="translate(500,33)"/>
<path d="M0 0 C2.97 0 5.94 0 9 0 C9 12.21 9 24.42 9 37 C6.03 37 3.06 37 0 37 C0 24.79 0 12.58 0 0 Z " fill="#385562" transform="translate(102,121)"/>
<path d="M0 0 C2 1.1875 2 1.1875 3 3 C2.73865785 6.397448 1.64391844 9.04094682 0 12 C0.66 12.66 1.32 13.32 2 14 C2.33 13.01 2.66 12.02 3 11 C4.65 11 6.3 11 8 11 C7.90460938 11.61488281 7.80921875 12.22976562 7.7109375 12.86328125 C7.65550781 13.26740234 7.65550781 13.26740234 7.375 15.3125 C7.25898438 16.11300781 7.14296875 16.91351563 7.0234375 17.73828125 C7 20 7 20 9 23 C6.24940619 23.08107646 3.50120979 23.14052813 0.75 23.1875 C-0.02730469 23.21263672 -0.80460937 23.23777344 -1.60546875 23.26367188 C-5.07685658 23.30817685 -7.39155207 23.31224227 -10.51953125 21.70703125 C-12 20 -12 20 -12.4375 16.5 C-12 13 -12 13 -10.4375 11.5 C-9.963125 11.005 -9.48875 10.51 -9 10 C-9.165 8.845 -9.33 7.69 -9.5 6.5 C-10 3 -10 3 -9 1.0625 C-5.90131981 -0.58367385 -3.43858351 -0.36841966 0 0 Z " fill="#1E5067" transform="translate(381,34)"/>
<path d="M0 0 C1.91242722 5.73728167 1.7428439 11.8828949 -0.25 17.5625 C-2.02987794 20.0416157 -3.14427279 21.01526648 -6 22 C-6 22.66 -6 23.32 -6 24 C-12.6 24 -19.2 24 -26 24 C-25.67 23.34 -25.34 22.68 -25 22 C-23.26764599 21.49715228 -21.51249648 21.07157343 -19.75 20.6875 C-14.83195288 19.37984804 -11.86683242 18.43896633 -9 14 C-8.26076366 11.14629994 -7.75462493 8.34667824 -7.359375 5.42578125 C-7 3 -7 3 -6 1 C-3 0 -3 0 0 0 Z " fill="#30505F" transform="translate(84,134)"/>
<path d="M0 0 C2.64 0 5.28 0 8 0 C9.625 2.625 9.625 2.625 11 6 C10.1875 9.375 10.1875 9.375 9 12 C8.34 11.67 7.68 11.34 7 11 C6.67 17.93 6.34 24.86 6 32 C4.02 32 2.04 32 0 32 C0 21.44 0 10.88 0 0 Z " fill="#124860" transform="translate(405,25)"/>
<path d="M0 0 C0.33 0 0.66 0 1 0 C1 8.25 1 16.5 1 25 C2.32 25 3.64 25 5 25 C5 20.38 5 15.76 5 11 C5.33 11 5.66 11 6 11 C6.06058594 11.63808594 6.12117188 12.27617188 6.18359375 12.93359375 C6.26738281 13.75988281 6.35117187 14.58617187 6.4375 15.4375 C6.51871094 16.26121094 6.59992188 17.08492187 6.68359375 17.93359375 C7 20 7 20 8 21 C10.33297433 21.04092937 12.66705225 21.04241723 15 21 C15.19256441 15.49051833 15.31834516 11.10035935 13 6 C13.33 5.01 13.66 4.02 14 3 C17.94857378 4.28061852 19.87423255 5.41429457 22 9 C22.82994514 14.43576681 22.94121017 19.39994272 20.125 24.1875 C16.40782986 27.35802747 13.84336473 27.25491393 9 27 C8.01 26.34 7.02 25.68 6 25 C6 25.66 6 26.32 6 27 C4.02 27 2.04 27 0 27 C0 18.09 0 9.18 0 0 Z " fill="#194A60" transform="translate(306,30)"/>
<path d="M0 0 C1.98 0 3.96 0 6 0 C6 10.56 6 21.12 6 32 C4.02 32 2.04 32 0 32 C-0.79953138 28.71303767 -1.09658936 27.28976808 0 24 C-0.65454545 15.75272727 -0.65454545 15.75272727 -3 12 C-2.01 11.67 -1.02 11.34 0 11 C0 7.37 0 3.74 0 0 Z " fill="#15485E" transform="translate(544,25)"/>
<path d="M0 0 C2.31 0 4.62 0 7 0 C7 0.66 7 1.32 7 2 C7.99 1.34 8.98 0.68 10 0 C11.32 0 12.64 0 14 0 C14 1.65 14 3.3 14 5 C12.02 5.66 10.04 6.32 8 7 C7.67 12.61 7.34 18.22 7 24 C4.69 24 2.38 24 0 24 C0 16.08 0 8.16 0 0 Z " fill="#3D6779" transform="translate(457,33)"/>
<path d="M0 0 C7.51953125 -0.390625 7.51953125 -0.390625 10 0 C12.37738249 2.41348157 12.95072272 3.60578176 13.375 7 C12.95311909 10.37504726 12.57271448 11.77031412 10 14 C6.8125 14.25 6.8125 14.25 4 14 C3.67 15.65 3.34 17.3 3 19 C2.01 19 1.02 19 0 19 C0 12.73 0 6.46 0 0 Z " fill="#8B8B8B" transform="translate(314,96)"/>
<path d="M0 0 C0.99 0 1.98 0 3 0 C3 5.94 3 11.88 3 18 C-4.51953125 18.390625 -4.51953125 18.390625 -7 18 C-9.37738249 15.58651843 -9.95072272 14.39421824 -10.375 11 C-9.95311909 7.62495274 -9.57271448 6.22968588 -7 4 C-3.8125 3.75 -3.8125 3.75 -1 4 C-0.67 2.68 -0.34 1.36 0 0 Z " fill="#8D8D8D" transform="translate(427,92)"/>
<path d="M0 0 C0.46792969 -0.01417969 0.46792969 -0.01417969 2.8359375 -0.0859375 C6.67101234 0.54787039 8.12765761 1.36019027 10.625 4.375 C11.23425091 7.81193672 11.09573988 11.14859159 10.9375 14.625 C10.91494141 15.56085937 10.89238281 16.49671875 10.86914062 17.4609375 C10.81030595 19.76725674 10.72817146 22.07030838 10.625 24.375 C10.295 24.375 9.965 24.375 9.625 24.375 C9.56441406 23.09882812 9.50382813 21.82265625 9.44140625 20.5078125 C9.35700432 18.83852984 9.27235614 17.16925963 9.1875 15.5 C9.14818359 14.65824219 9.10886719 13.81648438 9.06835938 12.94921875 C9.02646484 12.14355469 8.98457031 11.33789062 8.94140625 10.5078125 C8.90474854 9.76418457 8.86809082 9.02055664 8.83032227 8.25439453 C8.625 6.375 8.625 6.375 7.625 4.375 C6.635 4.045 5.645 3.715 4.625 3.375 C5 5.8125 5 5.8125 5.625 8.375 C6.285 8.705 6.945 9.035 7.625 9.375 C6.965 9.375 6.305 9.375 5.625 9.375 C5.5734375 10.014375 5.5734375 10.014375 5.3125 13.25 C5.13671875 15.4296875 5.13671875 15.4296875 4.625 17.375 C1.1897952 19.66513653 -0.360331 19.55342973 -4.375 19.375 C-4.125 17 -4.125 17 -3.375 14.375 C-1.3125 13.0625 -1.3125 13.0625 0.625 12.375 C0.625 11.715 0.625 11.055 0.625 10.375 C-0.035 10.045 -0.695 9.715 -1.375 9.375 C0.605 9.375 2.585 9.375 4.625 9.375 C3.965 8.055 3.305 6.735 2.625 5.375 C0.975 5.375 -0.675 5.375 -2.375 5.375 C-2.705 6.365 -3.035 7.355 -3.375 8.375 C-5.355 8.375 -7.335 8.375 -9.375 8.375 C-9.0625 5.5 -9.0625 5.5 -8.375 2.375 C-5.08324607 0.18049738 -3.8512457 0.05275679 0 0 Z " fill="#365F71" transform="translate(567.375,32.625)"/>
<path d="M0 0 C8.3984375 -0.1953125 8.3984375 -0.1953125 11 0 C13 2 13 2 13.125 4.375 C13.08375 5.24125 13.0425 6.1075 13 7 C13 10.78706732 13.4254048 14.26513121 14 18 C13.01 18 12.02 18 11 18 C10.34 15.69 9.68 13.38 9 11 C8.01 10.835 8.01 10.835 3 10 C3 12.64 3 15.28 3 18 C2.01 18 1.02 18 0 18 C0 12.06 0 6.12 0 0 Z " fill="#808080" transform="translate(253,92)"/>
<path d="M0 0 C2.31 0 4.62 0 7 0 C7 7.92 7 15.84 7 24 C4.69 24 2.38 24 0 24 C0 16.08 0 8.16 0 0 Z " fill="#2C586B" transform="translate(444,33)"/>
<path d="M0 0 C0.66 0 1.32 0 2 0 C2 5.94 2 11.88 2 18 C0.39125 18.061875 -1.2175 18.12375 -2.875 18.1875 C-3.77992188 18.22230469 -4.68484375 18.25710937 -5.6171875 18.29296875 C-6.01035156 18.24462891 -6.01035156 18.24462891 -8 18 C-10.53637054 14.19544419 -10.59473663 11.46052469 -10 7 C-8.8125 5 -8.8125 5 -7 4 C-4.375 3.75 -4.375 3.75 -2 4 C-1.67 4.33 -1.34 4.66 -1 5 C-0.67 3.35 -0.34 1.7 0 0 Z " fill="#747474" transform="translate(506,92)"/>
<path d="M0 0 C2 1.1875 2 1.1875 3 3 C2.78626751 5.77852232 2.14746583 7.71326089 0.875 10.1875 C0.730625 10.4865625 0.730625 10.4865625 0 12 C0.33 12.66 0.66 13.32 1 14 C-2.05263664 14.98120464 -3.94736336 14.98120464 -7 14 C-7.33 15.98 -7.66 17.96 -8 20 C-8.99 19.67 -9.98 19.34 -11 19 C-11.17022764 14.57408148 -10.95152067 11.90304134 -9 8 C-9.185625 7.154375 -9.37125 6.30875 -9.5625 5.4375 C-10 3 -10 3 -9 1.1875 C-5.9238434 -0.63896798 -3.49590968 -0.37456175 0 0 Z " fill="#2B586D" transform="translate(381,34)"/>
<path d="M0 0 C3.5 0.4375 3.5 0.4375 5.4375 1.4375 C7.15886567 4.67771772 7.02960415 7.85707756 6.5 11.4375 C5.4375 13.4375 5.4375 13.4375 3.5 14.4375 C0 14.875 0 14.875 -3.5 14.4375 C-6.13769276 12.22524156 -6.44923246 10.84364032 -6.875 7.4375 C-6.24186108 2.37238863 -5.19492722 0.6493659 0 0 Z " fill="#868686" transform="translate(402.5,95.5625)"/>
<path d="M0 0 C3.68443424 0.25121143 5.49646982 0.50282065 8.16796875 3.140625 C10.34858395 6.54405853 10.56715116 8.54854886 10.5625 12.5625 C10.58441406 13.67753906 10.60632813 14.79257812 10.62890625 15.94140625 C10 19 10 19 7.734375 21.41796875 C3.61965518 23.79862808 1.54722966 22.92486027 -3 22 C-2.67 21.34 -2.34 20.68 -2 20 C-1.01 20 -0.02 20 1 20 C1 19.34 1 18.68 1 18 C1.66 18 2.32 18 3 18 C3.35568713 12.07188114 3.0174566 8.28054905 0 3 C0 2.01 0 1.02 0 0 Z " fill="#184A60" transform="translate(290,33)"/>
<path d="M0 0 C2.375 1.625 2.375 1.625 4 4 C4.48746608 7.34262452 4.31565201 9.29442492 2.9375 12.375 C1 14 1 14 -2.5 14.4375 C-6 14 -6 14 -7.9375 13 C-9.65701652 9.76326302 -9.53653931 6.57692871 -9 3 C-6.89524812 -0.74178112 -4.00297686 -0.57185384 0 0 Z " fill="#8D8D8D" transform="translate(536,96)"/>
<path d="M0 0 C2.04470249 1.66736408 2.92566921 2.52497566 3.34057617 5.17651367 C3.32486572 5.99869385 3.30915527 6.82087402 3.29296875 7.66796875 C3.28330078 8.56064453 3.27363281 9.45332031 3.26367188 10.37304688 C3.23853516 11.30181641 3.21339844 12.23058594 3.1875 13.1875 C3.17396484 14.12787109 3.16042969 15.06824219 3.14648438 16.03710938 C3.11113096 18.35865038 3.06178674 20.67903653 3 23 C1.02 23 -0.96 23 -3 23 C-3 16.4 -3 9.8 -3 3 C-4.65 3 -6.3 3 -8 3 C-7.67 2.34 -7.34 1.68 -7 1 C-6.5153125 1.0103125 -6.5153125 1.0103125 -4.0625 1.0625 C-1 1 -1 1 0 0 Z " fill="#144A64" transform="translate(519,34)"/>
<path d="M0 0 C0 0.66 0 1.32 0 2 C-2.64 2.99 -5.28 3.98 -8 5 C-8 6.32 -8 7.64 -8 9 C-6.35 9.33 -4.7 9.66 -3 10 C-3.33 11.32 -3.66 12.64 -4 14 C-11.25581395 14.48372093 -11.25581395 14.48372093 -14.5 12.375 C-16.46942769 9.25673949 -16.67927401 7.62279473 -16 4 C-11.88688546 -1.38959837 -6.15757443 -0.38821835 0 0 Z " fill="#2B5465" transform="translate(488,43)"/>
<path d="M0 0 C0.94875 0.04125 1.8975 0.0825 2.875 0.125 C4.7828584 3.2999094 5.0359041 5.23085211 4.5 8.875 C4.44457031 9.27460937 4.44457031 9.27460937 4.1640625 11.296875 C4.11636719 11.59851563 4.11636719 11.59851563 3.875 13.125 C0.5 13.75 0.5 13.75 -3.125 14.125 C-5.125 12.125 -5.125 12.125 -5.390625 9.8125 C-5.38546875 8.925625 -5.3803125 8.03875 -5.375 7.125 C-5.38015625 6.238125 -5.3853125 5.35125 -5.390625 4.4375 C-4.95202162 0.61907057 -3.72250629 0.14890025 0 0 Z " fill="#F0F7F8" transform="translate(289.125,37.875)"/>
<path d="M0 0 C2.45410358 3.68115537 2.23287843 5.65293598 2 10 C1.67 10.99 1.34 11.98 1 13 C-2.375 13.625 -2.375 13.625 -6 14 C-8.52017426 11.47982574 -8.29730377 10.48500151 -8.3125 7 C-8.32925781 6.113125 -8.34601563 5.22625 -8.36328125 4.3125 C-8.24339844 3.549375 -8.12351562 2.78625 -8 2 C-4.79191085 -0.1387261 -3.72301503 -0.47730962 0 0 Z " fill="#F0F7F8" transform="translate(320,38)"/>
<path d="M0 0 C2.5625 0.3125 2.5625 0.3125 4.375 1.3125 C6.27270228 4.50863015 6.11253751 7.695815 5.5625 11.3125 C4.375 13.3125 4.375 13.3125 2.5625 14.3125 C0 14.6875 0 14.6875 -2.4375 14.3125 C-4.52690868 11.17838698 -4.71114412 10.33799528 -4.6875 6.75 C-4.69265625 5.96496094 -4.6978125 5.17992187 -4.703125 4.37109375 C-4.29014613 1.17050754 -3.12241226 0.40030926 0 0 Z " fill="#F4FAFB" transform="translate(538.4375,37.6875)"/>
<path d="M0 0 C3.5625 0.1875 3.5625 0.1875 5.5625 2.1875 C5.7578125 5.0078125 5.7578125 5.0078125 5.6875 8.3125 C5.66945313 9.40820312 5.65140625 10.50390625 5.6328125 11.6328125 C5.60960937 12.47585937 5.58640625 13.31890625 5.5625 14.1875 C3.91675434 14.21438151 2.27088587 14.23384123 0.625 14.25 C-0.29152344 14.26160156 -1.20804687 14.27320312 -2.15234375 14.28515625 C-4.4375 14.1875 -4.4375 14.1875 -5.4375 13.1875 C-5.47830783 11.18791636 -5.48004356 9.18704746 -5.4375 7.1875 C-2.48085481 5.7091774 0.30479737 6.12717217 3.5625 6.1875 C3.2325 5.1975 2.9025 4.2075 2.5625 3.1875 C1.2425 3.1875 -0.0775 3.1875 -1.4375 3.1875 C-1.7675 3.8475 -2.0975 4.5075 -2.4375 5.1875 C-3.4275 5.1875 -4.4175 5.1875 -5.4375 5.1875 C-4.31932898 0.23559976 -4.31932898 0.23559976 0 0 Z " fill="#8F8F8F" transform="translate(387.4375,95.8125)"/>
<path d="M0 0 C1.875 1.25 1.875 1.25 3 3 C3 4.32 3 5.64 3 7 C0.03 7 -2.94 7 -6 7 C-5.67 8.32 -5.34 9.64 -5 11 C-3.68 11 -2.36 11 -1 11 C-0.67 10.34 -0.34 9.68 0 9 C0.99 9 1.98 9 3 9 C2.625 10.9375 2.625 10.9375 2 13 C-0.79870027 14.39935013 -2.90498792 14.25265405 -6 14 C-7.875 13 -7.875 13 -9 11 C-9.53967465 7.40216898 -9.68523932 4.21820324 -7.875 1 C-5.10184376 -0.47901666 -3.08815875 -0.38601984 0 0 Z " fill="#8D8D8D" transform="translate(442,96)"/>
<path d="M0 0 C3 0.375 3 0.375 6 2.375 C6.1875 5 6.1875 5 6 7.375 C3.03 7.375 0.06 7.375 -3 7.375 C-2.34 8.695 -1.68 10.015 -1 11.375 C0.32 11.375 1.64 11.375 3 11.375 C3.33 10.715 3.66 10.055 4 9.375 C4.66 9.375 5.32 9.375 6 9.375 C5.125 13.25 5.125 13.25 4 14.375 C0.625 14.6875 0.625 14.6875 -3 14.375 C-5.63769276 12.16274156 -5.94923246 10.78114032 -6.375 7.375 C-5.7939073 2.72625842 -4.83316081 0.6041451 0 0 Z " fill="#8C8C8C" transform="translate(335,95.625)"/>
<path d="M0 0 C3.4375 0.375 3.4375 0.375 5.4375 2.375 C5.5625 5 5.5625 5 5.4375 7.375 C2.4675 7.375 -0.5025 7.375 -3.5625 7.375 C-2.9025 8.695 -2.2425 10.015 -1.5625 11.375 C-0.2425 11.375 1.0775 11.375 2.4375 11.375 C2.7675 10.715 3.0975 10.055 3.4375 9.375 C4.0975 9.375 4.7575 9.375 5.4375 9.375 C4.5625 13.25 4.5625 13.25 3.4375 14.375 C-0.12549065 14.77088785 -1.93889795 14.80167508 -4.9375 12.75 C-7.0378727 9.68022452 -7.09543835 8.02943439 -6.5625 4.375 C-4.91004693 0.68128136 -4.08263587 0.42975114 0 0 Z " fill="#8B8B8B" transform="translate(487.5625,95.625)"/>
<path d="M0 0 C2.375 0.75 2.375 0.75 4 2 C4.75 4.125 4.75 4.125 5 6 C4.01 6 3.02 6 2 6 C1.67 5.34 1.34 4.68 1 4 C-2.4375 3.25 -2.4375 3.25 -6 3 C-8 5 -8 5 -8.1875 8.5 C-8 12 -8 12 -7 14 C-4.67843403 14.40729228 -2.3431213 14.74438677 0 15 C0.66 14.01 1.32 13.02 2 12 C2.99 12.33 3.98 12.66 5 13 C2.22332332 16.3656687 0.82332657 17.87000107 -3.5625 18.5625 C-7.48101711 17.92128811 -8.62558226 17.10500781 -11 14 C-12.56935594 10.86128812 -12.35201103 8.46144178 -12 5 C-8.54452318 0.07856332 -5.88775561 -0.74935071 0 0 Z " fill="#868686" transform="translate(465,92)"/>
<path d="M0 0 C0.66 1.32 1.32 2.64 2 4 C3 5 3 5 6.0625 5.0625 C7.031875 5.041875 8.00125 5.02125 9 5 C9.33 4.34 9.66 3.68 10 3 C12.31 3 14.62 3 17 3 C16.10368306 6.01488424 15.32087126 7.71802222 12.9375 9.8125 C8.94179539 11.42778484 5.26255164 11.43546696 1 11 C0.34 10.67 -0.32 10.34 -1 10 C-0.67 6.7 -0.34 3.4 0 0 Z " fill="#224C5F" transform="translate(255,46)"/>
<path d="M0 0 C0.99 0.66 1.98 1.32 3 2 C3 2.99 3 3.98 3 5 C2.01 5 1.02 5 0 5 C-0.33 4.34 -0.66 3.68 -1 3 C-2.32 3 -3.64 3 -5 3 C-5 5.64 -5 8.28 -5 11 C-3.68 11 -2.36 11 -1 11 C-0.67 10.34 -0.34 9.68 0 9 C0.99 9 1.98 9 3 9 C2.42655063 11.86724686 2.1385485 12.8614515 0 15 C-0.625 17.125 -0.625 17.125 -1 19 C-2.32 19 -3.64 19 -5 19 C-4.67 17.35 -4.34 15.7 -4 14 C-4.639375 13.71125 -5.27875 13.4225 -5.9375 13.125 C-8 12 -8 12 -9 10 C-9.4524237 3.77917415 -9.4524237 3.77917415 -7.875 1.0625 C-5.14015561 -0.48724515 -3.0875593 -0.32162076 0 0 Z " fill="#8A8A8A" transform="translate(376,96)"/>
<path d="M0 0 C0.33 0 0.66 0 1 0 C1 8.25 1 16.5 1 25 C2.32 25 3.64 25 5 25 C5 20.38 5 15.76 5 11 C5.33 11 5.66 11 6 11 C6.06058594 11.63808594 6.12117188 12.27617188 6.18359375 12.93359375 C6.26738281 13.75988281 6.35117187 14.58617187 6.4375 15.4375 C6.51871094 16.26121094 6.59992188 17.08492187 6.68359375 17.93359375 C7 20 7 20 8 21 C9.52519276 20.91062197 11.04681929 20.75462854 12.5625 20.5625 C13.38878906 20.46066406 14.21507812 20.35882813 15.06640625 20.25390625 C15.38544922 20.21201172 15.38544922 20.21201172 17 20 C16.25 24.75 16.25 24.75 14 27 C10.26703674 27.38286803 9.22373677 27.14915785 6 25 C6 25.66 6 26.32 6 27 C4.02 27 2.04 27 0 27 C0 18.09 0 9.18 0 0 Z " fill="#224E61" transform="translate(306,30)"/>
<path d="M0 0 C0.99 0.33 1.98 0.66 3 1 C3 1.66 3 2.32 3 3 C3.66 3.33 4.32 3.66 5 4 C4.67 9.94 4.34 15.88 4 22 C2.35 22 0.7 22 -1 22 C-0.67 14.74 -0.34 7.48 0 0 Z " fill="#12465D" transform="translate(459,35)"/>
<path d="M0 0 C-0.495 0.5775 -0.99 1.155 -1.5 1.75 C-3 4 -3 4 -3 8 C-2.01 8.33 -1.02 8.66 0 9 C0 9.66 0 10.32 0 11 C-0.99 11.33 -1.98 11.66 -3 12 C-3 11.34 -3 10.68 -3 10 C-4.65 10.66 -6.3 11.32 -8 12 C-10.4832167 10.13758747 -10.96917166 9.18111649 -11.5 6.0625 C-11 3 -11 3 -8.875 0.5625 C-5.3759721 -1.3391456 -3.76543923 -1.05082025 0 0 Z " fill="#295769" transform="translate(343,44)"/>
<path d="M0 0 C0.48533203 0.00322266 0.48533203 0.00322266 2.94140625 0.01953125 C5.4375 0.1875 5.4375 0.1875 7.4375 1.1875 C6.4375 4.1875 6.4375 4.1875 5.4375 5.1875 C5.07587971 6.51344105 4.74021961 7.84688457 4.4375 9.1875 C3.7775 7.8675 3.1175 6.5475 2.4375 5.1875 C0.4575 5.1875 -1.5225 5.1875 -3.5625 5.1875 C-3.5625 6.1775 -3.5625 7.1675 -3.5625 8.1875 C-5.5425 8.1875 -7.5225 8.1875 -9.5625 8.1875 C-9.25 5.3125 -9.25 5.3125 -8.5625 2.1875 C-5.18127827 -0.06664782 -3.9560272 -0.05794447 0 0 Z " fill="#285265" transform="translate(483.5625,32.8125)"/>
<path d="M0 0 C1.9375 0.375 1.9375 0.375 4 1 C5.1482685 3.296537 5.11561175 4.58313167 5.09765625 7.1328125 C5.09604492 7.53564453 5.09604492 7.53564453 5.08789062 9.57421875 C5.07951172 10.41597656 5.07113281 11.25773437 5.0625 12.125 C5.05798828 12.97449219 5.05347656 13.82398438 5.04882812 14.69921875 C5.03702874 16.79950909 5.01909306 18.8997633 5 21 C3.35 21 1.7 21 0 21 C0 20.34 0 19.68 0 19 C0.66 18.67 1.32 18.34 2 18 C1.67 17.34 1.34 16.68 1 16 C0.34 16 -0.32 16 -1 16 C-0.84402344 15.26394531 -0.68804688 14.52789062 -0.52734375 13.76953125 C-0.33269531 12.79371094 -0.13804687 11.81789063 0.0625 10.8125 C0.25972656 9.84957031 0.45695313 8.88664062 0.66015625 7.89453125 C1.00423947 4.96389138 0.74164697 2.83692932 0 0 Z " fill="#12475E" transform="translate(572,36)"/>
<path d="M0 0 C3.5625 0.1875 3.5625 0.1875 5.5625 2.1875 C5.7578125 5.0078125 5.7578125 5.0078125 5.6875 8.3125 C5.66945313 9.40820312 5.65140625 10.50390625 5.6328125 11.6328125 C5.60960937 12.47585937 5.58640625 13.31890625 5.5625 14.1875 C2.2625 14.1875 -1.0375 14.1875 -4.4375 14.1875 C-4.7675 12.5375 -5.0975 10.8875 -5.4375 9.1875 C-4.7775 9.8475 -4.1175 10.5075 -3.4375 11.1875 C0.1875 11.3125 0.1875 11.3125 3.5625 11.1875 C3.5625 9.8675 3.5625 8.5475 3.5625 7.1875 C1.5825 7.1875 -0.3975 7.1875 -2.4375 7.1875 C-2.4375 6.8575 -2.4375 6.5275 -2.4375 6.1875 C-0.7875 6.1875 0.8625 6.1875 2.5625 6.1875 C2.5625 4.8675 2.5625 3.5475 2.5625 2.1875 C0.9125 2.1875 -0.7375 2.1875 -2.4375 2.1875 C-2.4375 3.1775 -2.4375 4.1675 -2.4375 5.1875 C-3.4275 5.1875 -4.4175 5.1875 -5.4375 5.1875 C-4.31932898 0.23559976 -4.31932898 0.23559976 0 0 Z " fill="#8C8C8C" transform="translate(358.4375,95.8125)"/>
<path d="M0 0 C0.6290625 0.020625 0.6290625 0.020625 3.8125 0.125 C3.8125 0.785 3.8125 1.445 3.8125 2.125 C5.4625 2.455 7.1125 2.785 8.8125 3.125 C8.4825 4.115 8.1525 5.105 7.8125 6.125 C4.8425 5.795 1.8725 5.465 -1.1875 5.125 C-1.5175 6.115 -1.8475 7.105 -2.1875 8.125 C-4.1675 8.125 -6.1475 8.125 -8.1875 8.125 C-7.875 5.25 -7.875 5.25 -7.1875 2.125 C-4.09861478 0.06574319 -3.47814073 -0.1140374 0 0 Z " fill="#194559" transform="translate(342.1875,32.875)"/>
<path d="M0 0 C0.33 0.66 0.66 1.32 1 2 C0.4328125 2.144375 0.4328125 2.144375 -2.4375 2.875 C-3.613125 3.24625 -4.78875 3.6175 -6 4 C-6.33 4.66 -6.66 5.32 -7 6 C-4.36 6 -1.72 6 1 6 C1 5.34 1 4.68 1 4 C1.66 4 2.32 4 3 4 C3 4.99 3 5.98 3 7 C0.03 7 -2.94 7 -6 7 C-5.67 8.32 -5.34 9.64 -5 11 C-2.23723823 10.47731534 0.3260876 9.89130413 3 9 C2.125 12.875 2.125 12.875 1 14 C-5.27906977 14.58139535 -5.27906977 14.58139535 -7.9375 12.4375 C-9.39343329 9.09741776 -9.3931463 6.60384106 -9 3 C-6.82246161 -0.75020501 -4.02857537 -0.26857169 0 0 Z " fill="#8D8D8D" transform="translate(278,96)"/>
<path d="M0 0 C2 2 2 2 2.01171875 5.3359375 C1.91454043 6.68312185 1.80599372 8.02952293 1.6875 9.375 C1.63916016 10.04789063 1.59082031 10.72078125 1.54101562 11.4140625 C1.2857359 14.69715371 0.94799787 17.84000709 0 21 C-0.99 21 -1.98 21 -3 21 C-3.08687496 17.87517438 -3.14034568 14.75065754 -3.1875 11.625 C-3.21263672 10.73554687 -3.23777344 9.84609375 -3.26367188 8.9296875 C-3.27333984 8.07890625 -3.28300781 7.228125 -3.29296875 6.3515625 C-3.3086792 5.56604004 -3.32438965 4.78051758 -3.34057617 3.97119141 C-3.22818604 3.32069824 -3.1157959 2.67020508 -3 2 C-2.01 1.34 -1.02 0.68 0 0 Z " fill="#114860" transform="translate(282,35)"/>
<path d="M0 0 C1.875 1.375 1.875 1.375 3 3 C3 3.66 3 4.32 3 5 C2.01 5 1.02 5 0 5 C-0.33 4.34 -0.66 3.68 -1 3 C-2.32 3 -3.64 3 -5 3 C-5 5.64 -5 8.28 -5 11 C-3.68 11 -2.36 11 -1 11 C-0.67 10.34 -0.34 9.68 0 9 C0.99 9 1.98 9 3 9 C2.625 10.9375 2.625 10.9375 2 13 C-0.79870027 14.39935013 -2.90498792 14.25265405 -6 14 C-7.875 13 -7.875 13 -9 11 C-9.53967465 7.40216898 -9.68523932 4.21820324 -7.875 1 C-5.10184376 -0.47901666 -3.08815875 -0.38601984 0 0 Z " fill="#818181" transform="translate(293,96)"/>
<path d="M0 0 C1.45823212 -0.0270043 2.91660675 -0.04639787 4.375 -0.0625 C5.18710937 -0.07410156 5.99921875 -0.08570313 6.8359375 -0.09765625 C9 0 9 0 11 1 C11 2.32 11 3.64 11 5 C10.34 5 9.68 5 9 5 C9.33 6.32 9.66 7.64 10 9 C6.7 9 3.4 9 0 9 C0.95934081 5.16263678 1.23609263 4.40339772 4 2 C2.68 1.34 1.36 0.68 0 0 Z M1 2 C1.33 2.66 1.66 3.32 2 4 C1.34 3.67 0.68 3.34 0 3 C0.33 2.67 0.66 2.34 1 2 Z " fill="#2A566B" transform="translate(256,33)"/>
<path d="M0 0 C1.1875 3.0625 1.1875 3.0625 2 6 C0.35 6 -1.3 6 -3 6 C-3.33 7.65 -3.66 9.3 -4 11 C-7 7.25 -7 7.25 -7 5 C-7.61875 4.71125 -8.2375 4.4225 -8.875 4.125 C-11 3 -11 3 -13 1 C-8.52849424 -0.49050192 -4.53910817 -1.51303606 0 0 Z " fill="#617986" transform="translate(81,129)"/>
<path d="M0 0 C2.64 0 5.28 0 8 0 C8.33 0.99 8.66 1.98 9 3 C7.68 3 6.36 3 5 3 C5 2.34 5 1.68 5 1 C3.68 1 2.36 1 1 1 C1.33 10.57 1.66 20.14 2 30 C2.66 30 3.32 30 4 30 C4.33 23.73 4.66 17.46 5 11 C5.33 11 5.66 11 6 11 C6 17.93 6 24.86 6 32 C4.02 32 2.04 32 0 32 C0 21.44 0 10.88 0 0 Z " fill="#1C4455" transform="translate(405,25)"/>
<path d="M0 0 C0.66 0 1.32 0 2 0 C2.33 3.63 2.66 7.26 3 11 C4.65 10.67 6.3 10.34 8 10 C8.33 6.7 8.66 3.4 9 0 C9.66 0 10.32 0 11 0 C11 4.62 11 9.24 11 14 C7.66666667 14 4.33333333 14 1 14 C-0.38226016 11.23547967 -0.09525387 8.9538637 -0.0625 5.875 C-0.05347656 4.77929688 -0.04445313 3.68359375 -0.03515625 2.5546875 C-0.02355469 1.71164063 -0.01195312 0.86859375 0 0 Z " fill="#787878" transform="translate(299,96)"/>
<path d="M0 0 C0.33 0.66 0.66 1.32 1 2 C2.65 2 4.3 2 6 2 C6.66 3.98 7.32 5.96 8 8 C4.94736336 8.98120464 3.05263664 8.98120464 0 8 C-0.33 9.98 -0.66 11.96 -1 14 C-1.99 13.67 -2.98 13.34 -4 13 C-4.45732667 7.28341664 -3.52273754 4.51350747 0 0 Z " fill="#224F64" transform="translate(374,40)"/>
<path d="M0 0 C0.33 0 0.66 0 1 0 C1 1.98 1 3.96 1 6 C1.66 6 2.32 6 3 6 C3.66 4.02 4.32 2.04 5 0 C6.875 0.1875 6.875 0.1875 9 1 C10.25 3.5625 10.25 3.5625 11 6 C9.35 6.66 7.7 7.32 6 8 C8.97 8 11.94 8 15 8 C11.28958674 10.47360884 8.2997237 10.53638404 4 10 C1.5 8.9375 1.5 8.9375 0 7 C-0.25 3.3125 -0.25 3.3125 0 0 Z " fill="#3A5F70" transform="translate(369,47)"/>
<path d="M0 0 C0.556875 0.020625 0.556875 0.020625 3.375 0.125 C1.625 4 1.625 4 -0.625 5.125 C-0.955 6.115 -1.285 7.105 -1.625 8.125 C1.345 8.125 4.315 8.125 7.375 8.125 C7.375 8.455 7.375 8.785 7.375 9.125 C4.075 9.125 0.775 9.125 -2.625 9.125 C-2.955 7.475 -3.285 5.825 -3.625 4.125 C-6.21426331 6.71426331 -5.99898043 8.15205279 -6.25 11.75 C-6.32476562 12.75289062 -6.39953125 13.75578125 -6.4765625 14.7890625 C-6.52554688 15.55992188 -6.57453125 16.33078125 -6.625 17.125 C-7.285 16.795 -7.945 16.465 -8.625 16.125 C-9.18289474 6.64078947 -9.18289474 6.64078947 -5.625 2.125 C-3.625 0.125 -3.625 0.125 0 0 Z M-0.625 1.125 C-0.955 1.785 -1.285 2.445 -1.625 3.125 C-0.965 3.125 -0.305 3.125 0.375 3.125 C0.045 2.465 -0.285 1.805 -0.625 1.125 Z " fill="#2A5367" transform="translate(257.625,33.875)"/>
<path d="M0 0 C0.99 0 1.98 0 3 0 C3 0.99 3 1.98 3 3 C3.99 3 4.98 3 6 3 C6 3.66 6 4.32 6 5 C5.01 5 4.02 5 3 5 C3 8.3 3 11.6 3 15 C3.99 15 4.98 15 6 15 C6 15.66 6 16.32 6 17 C1.125 16.125 1.125 16.125 0 15 C-0.07205511 13.31391034 -0.08386068 11.62499341 -0.0625 9.9375 C-0.05347656 9.01839844 -0.04445313 8.09929687 -0.03515625 7.15234375 C-0.02355469 6.44207031 -0.01195312 5.73179688 0 5 C-0.66 5 -1.32 5 -2 5 C-2 4.34 -2 3.68 -2 3 C-1.34 3 -0.68 3 0 3 C0 2.01 0 1.02 0 0 Z " fill="#7E7E7E" transform="translate(519,93)"/>
<path d="M0 0 C0.6290625 0.020625 0.6290625 0.020625 3.8125 0.125 C3.8125 1.115 3.8125 2.105 3.8125 3.125 C3.4103125 3.2590625 3.4103125 3.2590625 1.375 3.9375 C0.529375 4.329375 -0.31625 4.72125 -1.1875 5.125 C-1.5175 6.115 -1.8475 7.105 -2.1875 8.125 C-4.1675 8.125 -6.1475 8.125 -8.1875 8.125 C-7.875 5.25 -7.875 5.25 -7.1875 2.125 C-4.09861478 0.06574319 -3.47814073 -0.1140374 0 0 Z " fill="#265064" transform="translate(566.1875,32.875)"/>
<path d="M0 0 C3.47417927 0.31583448 5.53412708 0.63485636 8.3125 2.8125 C9.97628694 4.96926084 10.61910402 6.33372813 11 9 C8.36 9 5.72 9 3 9 C0 3.375 0 3.375 0 0 Z " fill="#174A61" transform="translate(233,25)"/>
<path d="M0 0 C0 2.64 0 5.28 0 8 C-2.375 8.625 -2.375 8.625 -5 9 C-7 7 -7 7 -7.125 3.375 C-7.08375 2.26125 -7.0425 1.1475 -7 0 C-4.3333581 -1.33332095 -2.83319697 -0.67102033 0 0 Z " fill="#F9F9F9" transform="translate(406,99)"/>
<path d="M0 0 C4.70588235 0.70588235 4.70588235 0.70588235 6 2 C6.1875 4.9375 6.1875 4.9375 6 8 C5.34 8.66 4.68 9.32 4 10 C1.375 9.625 1.375 9.625 -1 9 C-1.09765625 2.84765625 -1.09765625 2.84765625 -1 1 C-0.67 0.67 -0.34 0.34 0 0 Z " fill="#FAFAFA" transform="translate(531,98)"/>
<path d="M0 0 C4.70588235 0.70588235 4.70588235 0.70588235 6 2 C6.1875 4.9375 6.1875 4.9375 6 8 C5.34 8.66 4.68 9.32 4 10 C1.375 9.625 1.375 9.625 -1 9 C-1.09765625 2.84765625 -1.09765625 2.84765625 -1 1 C-0.67 0.67 -0.34 0.34 0 0 Z " fill="#F4F4F4" transform="translate(500,98)"/>
<path d="M0 0 C2.625 0.375 2.625 0.375 5 1 C5.125 4.375 5.125 4.375 5 8 C4.34 8.66 3.68 9.32 3 10 C0.375 9.625 0.375 9.625 -2 9 C-2.125 5.625 -2.125 5.625 -2 2 C-1.34 1.34 -0.68 0.68 0 0 Z " fill="#FAFAFA" transform="translate(319,98)"/>
<path d="M0 0 C2.9719385 1.12451727 5.33440687 2.22293791 8 4 C8 4.66 8 5.32 8 6 C2.42289352 7.06795656 -2.39436958 6.82622671 -8 6 C-6.68 5.67 -5.36 5.34 -4 5 C-4 4.34 -4 3.68 -4 3 C-2.68 2.67 -1.36 2.34 0 2 C0 1.34 0 0.68 0 0 Z " fill="#718792" transform="translate(70,123)"/>
<path d="M0 0 C3.53571429 0.53571429 3.53571429 0.53571429 5 2 C5.04092937 4.33297433 5.04241723 6.66705225 5 9 C2.625 9.625 2.625 9.625 0 10 C-2 8 -2 8 -2.25 5 C-2 2 -2 2 0 0 Z " fill="#FBFBFB" transform="translate(422,98)"/>
<path d="M0 0 C0.33 0.66 0.66 1.32 1 2 C3.0625 3.125 3.0625 3.125 5 4 C4 6 4 6 2.265625 6.62109375 C-0.28144284 7.04706889 -2.66856169 7.09646629 -5.25 7.0625 C-6.14203125 7.05347656 -7.0340625 7.04445313 -7.953125 7.03515625 C-8.62859375 7.02355469 -9.3040625 7.01195312 -10 7 C-9.01 6.67 -8.02 6.34 -7 6 C-7 4.35 -7 2.7 -7 1 C-5.845 0.835 -5.845 0.835 0 0 Z " fill="#2B586A" transform="translate(236,50)"/>
<path d="M0 0 C0.99 0.33 1.98 0.66 3 1 C3 1.66 3 2.32 3 3 C2.34 3 1.68 3 1 3 C0.67 3.99 0.34 4.98 0 6 C-0.66 6 -1.32 6 -2 6 C-2.103125 6.7425 -2.20625 7.485 -2.3125 8.25 C-3.04933797 11.1973519 -3.94799142 12.78383074 -6 15 C-6.66 15 -7.32 15 -8 15 C-7.25531915 7.25531915 -7.25531915 7.25531915 -4 4 C-3.34 4 -2.68 4 -2 4 C-1.34 2.68 -0.68 1.36 0 0 Z " fill="#114963" transform="translate(432,27)"/>
<path d="M0 0 C3.5625 0.1875 3.5625 0.1875 5.5625 2.1875 C5.7578125 5.0078125 5.7578125 5.0078125 5.6875 8.3125 C5.66945313 9.40820312 5.65140625 10.50390625 5.6328125 11.6328125 C5.60960937 12.47585937 5.58640625 13.31890625 5.5625 14.1875 C4.9025 14.1875 4.2425 14.1875 3.5625 14.1875 C3.5625 11.8775 3.5625 9.5675 3.5625 7.1875 C1.9125 7.1875 0.2625 7.1875 -1.4375 7.1875 C-1.4375 6.8575 -1.4375 6.5275 -1.4375 6.1875 C0.2125 6.1875 1.8625 6.1875 3.5625 6.1875 C3.2325 5.1975 2.9025 4.2075 2.5625 3.1875 C1.2425 3.1875 -0.0775 3.1875 -1.4375 3.1875 C-1.7675 3.8475 -2.0975 4.5075 -2.4375 5.1875 C-3.4275 5.1875 -4.4175 5.1875 -5.4375 5.1875 C-4.31932898 0.23559976 -4.31932898 0.23559976 0 0 Z " fill="#777777" transform="translate(387.4375,95.8125)"/>
<path d="M0 0 C2.375 -0.125 2.375 -0.125 5 0 C7 2 7 2 7 5 C4.69 5.495 4.69 5.495 -7 8 C-6.67 6.68 -6.34 5.36 -6 4 C-4.35 4 -2.7 4 -1 4 C-0.67 2.68 -0.34 1.36 0 0 Z " fill="#EAF7F9" transform="translate(565,37)"/>
<path d="M0 0 C2.31 0 4.62 0 7 0 C6.67 0.99 6.34 1.98 6 3 C5.01 3 4.02 3 3 3 C3 6.63 3 10.26 3 14 C2.01 14 1.02 14 0 14 C0 9.38 0 4.76 0 0 Z " fill="#8C8C8C" transform="translate(473,96)"/>
<path d="M0 0 C1.98 0 3.96 0 6 0 C6 0.99 6 1.98 6 3 C4.68 2.67 3.36 2.34 2 2 C2.01160156 3.00160156 2.02320313 4.00320312 2.03515625 5.03515625 C2.04454398 6.37760228 2.05364312 7.72005036 2.0625 9.0625 C2.07410156 10.37347656 2.08570313 11.68445313 2.09765625 13.03515625 C2.00452335 16.8163519 1.61448726 20.27920707 1 24 C0.67 24 0.34 24 0 24 C0 16.08 0 8.16 0 0 Z " fill="#4A6E7C" transform="translate(457,33)"/>
<path d="M0 0 C5.44693314 -0.09688221 10.63904667 -0.12862175 16 1 C16 1.33 16 1.66 16 2 C13.69 2 11.38 2 9 2 C8.67 2.99 8.34 3.98 8 5 C5.125 5.125 5.125 5.125 2 5 C1.34 4.34 0.68 3.68 0 3 C0 2.01 0 1.02 0 0 Z " fill="#EBF4F6" transform="translate(256,47)"/>
<path d="M0 0 C1.134375 0.020625 2.26875 0.04125 3.4375 0.0625 C3.0625 2.5 3.0625 2.5 2.4375 5.0625 C-0.27129335 6.41689668 -2.57183268 6.12751451 -5.5625 6.0625 C-4.48849278 0.07874549 -4.48849278 0.07874549 0 0 Z " fill="#E5F0F2" transform="translate(484.5625,45.9375)"/>
<path d="M0 0 C3.00617269 3.00617269 2.59585316 5.82381598 3 10 C4.65 10 6.3 10 8 10 C8 10.99 8 11.98 8 13 C4.625 13.1875 4.625 13.1875 1 13 C-1.70238949 8.94641576 -1.22937614 6.81689896 -1 2 C-0.67 1.34 -0.34 0.68 0 0 Z " fill="#8A8A8A" transform="translate(497,97)"/>
<path d="M0 0 C0.94875 0.04125 1.8975 0.0825 2.875 0.125 C2.875 1.115 2.875 2.105 2.875 3.125 C3.205 4.115 3.535 5.105 3.875 6.125 C0.575 6.125 -2.725 6.125 -6.125 6.125 C-4.64015152 0.18560606 -4.64015152 0.18560606 0 0 Z " fill="#B1B1B1" transform="translate(439.125,95.875)"/>
<path d="M0 0 C2.69082872 0.17635452 5.32851446 0.61835921 8 1 C8 2.32 8 3.64 8 5 C1.375 6 1.375 6 -2 6 C-1.125 1.125 -1.125 1.125 0 0 Z " fill="#9F9F9F" transform="translate(354,102)"/>
<path d="M0 0 C2.31 0 4.62 0 7 0 C7.66 1.32 8.32 2.64 9 4 C6.01405576 5.49297212 3.29146376 5.11755228 0 5 C-0.66 4.67 -1.32 4.34 -2 4 C-1.34 2.68 -0.68 1.36 0 0 Z " fill="#898989" transform="translate(484,96)"/>
<path d="M0 0 C1.38938077 1.96147874 2.7260411 3.96166576 4 6 C2.02 6 0.04 6 -2 6 C-2 5.34 -2 4.68 -2 4 C-5.3 4.33 -8.6 4.66 -12 5 C-11 3 -11 3 -9.00390625 2.1484375 C-8.19824219 1.89320312 -7.39257812 1.63796875 -6.5625 1.375 C-5.75941406 1.11460938 -4.95632813 0.85421875 -4.12890625 0.5859375 C-2 0 -2 0 0 0 Z " fill="#19485B" transform="translate(386,51)"/>
<path d="M0 0 C0.4846875 0.0103125 0.4846875 0.0103125 2.9375 0.0625 C2.9375 1.7125 2.9375 3.3625 2.9375 5.0625 C0.22870665 6.41689668 -2.07183268 6.12751451 -5.0625 6.0625 C-3.98897059 0.08140756 -3.98897059 0.08140756 0 0 Z " fill="#EDF8F8" transform="translate(568.0625,45.9375)"/>
<path d="M0 0 C0.4846875 0.0103125 0.4846875 0.0103125 2.9375 0.0625 C2.9375 1.7125 2.9375 3.3625 2.9375 5.0625 C0.22870665 6.41689668 -2.07183268 6.12751451 -5.0625 6.0625 C-3.98897059 0.08140756 -3.98897059 0.08140756 0 0 Z " fill="#EDF8F8" transform="translate(344.0625,45.9375)"/>
<path d="M0 0 C0.99 0 1.98 0 3 0 C3 4.62 3 9.24 3 14 C2.01 14 1.02 14 0 14 C0 9.38 0 4.76 0 0 Z " fill="#8E8E8E" transform="translate(512,96)"/>
<path d="M0 0 C0.99 0.66 1.98 1.32 3 2 C3 2.99 3 3.98 3 5 C2.01 5 1.02 5 0 5 C-0.33 4.34 -0.66 3.68 -1 3 C-2.32 3 -3.64 3 -5 3 C-5.33 4.98 -5.66 6.96 -6 9 C-6.99 9.33 -7.98 9.66 -9 10 C-9.36103152 3.6217765 -9.36103152 3.6217765 -7.875 1.0625 C-5.14015561 -0.48724515 -3.0875593 -0.32162076 0 0 Z " fill="#8C8C8C" transform="translate(376,96)"/>
<path d="M0 0 C0.5625 1.9375 0.5625 1.9375 1 4 C0 5 0 5 -3.5625 5.0625 C-4.696875 5.041875 -5.83125 5.02125 -7 5 C-7 3.35 -7 1.7 -7 0 C-4.3333581 -1.33332095 -2.83319697 -0.67102033 0 0 Z " fill="#D3E2E8" transform="translate(487,38)"/>
<path d="M0 0 C0.33 1.65 0.66 3.3 1 5 C1.99 5 2.98 5 4 5 C3.67 5.99 3.34 6.98 3 8 C0.9375 8.6875 0.9375 8.6875 -1 9 C-5 4.25 -5 4.25 -5 2 C-2 0 -2 0 0 0 Z " fill="#617A88" transform="translate(26,127)"/>
<path d="M0 0 C0.33 0 0.66 0 1 0 C1 2.31 1 4.62 1 7 C0.01 7 -0.98 7 -2 7 C-3.33981486 7.3062434 -4.67511887 7.63451555 -6 8 C-6.33 9.65 -6.66 11.3 -7 13 C-7.66 13 -8.32 13 -9 13 C-9.125 9.625 -9.125 9.625 -9 6 C-7 4 -7 4 -3.875 3.875 C-2.92625 3.91625 -1.9775 3.9575 -1 4 C-0.67 2.68 -0.34 1.36 0 0 Z " fill="#878787" transform="translate(427,92)"/>
<path d="M0 0 C0.66 1.65 1.32 3.3 2 5 C-1.3 5.33 -4.6 5.66 -8 6 C-8.33 5.34 -8.66 4.68 -9 4 C-7.04565548 0.09131097 -4.13449517 0 0 0 Z " fill="#13465D" transform="translate(233,25)"/>
<path d="M0 0 C0.33 0 0.66 0 1 0 C1 3.63 1 7.26 1 11 C-1.97 11 -4.94 11 -8 11 C-8.33 9.35 -8.66 7.7 -9 6 C-8.34 6.66 -7.68 7.32 -7 8 C-3.375 8.125 -3.375 8.125 0 8 C0 6.68 0 5.36 0 4 C-1.98 4 -3.96 4 -6 4 C-6 3.67 -6 3.34 -6 3 C-4.02 3 -2.04 3 0 3 C0 2.01 0 1.02 0 0 Z " fill="#7E7E7E" transform="translate(362,99)"/>
<path d="M0 0 C1.98 0 3.96 0 6 0 C6.33 1.65 6.66 3.3 7 5 C4.69 5.33 2.38 5.66 0 6 C0 4.02 0 2.04 0 0 Z " fill="#FCFCFC" transform="translate(256,94)"/>
<path d="M0 0 C0.33 0 0.66 0 1 0 C1 5.28 1 10.56 1 16 C-0.98 16 -2.96 16 -5 16 C-5 11.38 -5 6.76 -5 2 C-4.67 2 -4.34 2 -4 2 C-3.67 5.63 -3.34 9.26 -3 13 C-2.01 13.33 -1.02 13.66 0 14 C0 9.38 0 4.76 0 0 Z " fill="#1B4558" transform="translate(521,41)"/>
<path d="M0 0 C0.94875 0.04125 1.8975 0.0825 2.875 0.125 C3.205 0.785 3.535 1.445 3.875 2.125 C3.3078125 2.269375 3.3078125 2.269375 0.4375 3 C-0.738125 3.37125 -1.91375 3.7425 -3.125 4.125 C-3.455 4.785 -3.785 5.445 -4.125 6.125 C-1.485 6.125 1.155 6.125 3.875 6.125 C3.875 5.465 3.875 4.805 3.875 4.125 C4.535 4.125 5.195 4.125 5.875 4.125 C5.875 5.115 5.875 6.105 5.875 7.125 C2.575 7.125 -0.725 7.125 -4.125 7.125 C-4.455 7.785 -4.785 8.445 -5.125 9.125 C-5.25 5.75 -5.25 5.75 -5.125 2.125 C-3.125 0.125 -3.125 0.125 0 0 Z " fill="#747474" transform="translate(275.125,95.875)"/>
<path d="M0 0 C1.98 0 3.96 0 6 0 C6 0.66 6 1.32 6 2 C5.01 2.66 4.02 3.32 3 4 C2.48828125 6.3828125 2.48828125 6.3828125 2.3125 9.125 C2.24675781 10.03507812 2.18101562 10.94515625 2.11328125 11.8828125 C2.07589844 12.58148438 2.03851563 13.28015625 2 14 C1.34 14 0.68 14 0 14 C0 9.38 0 4.76 0 0 Z " fill="#7A7A7A" transform="translate(345,96)"/>
<path d="M0 0 C-0.556875 0.2475 -1.11375 0.495 -1.6875 0.75 C-4 2 -4 2 -6.625 4.125 C-9 6 -9 6 -11 6 C-11.33 9.63 -11.66 13.26 -12 17 C-12.33 17 -12.66 17 -13 17 C-13.56489945 6.22506602 -13.56489945 6.22506602 -10 2 C-6.3558226 -0.4294516 -4.28758728 -0.16179575 0 0 Z " fill="#3E6375" transform="translate(540,33)"/>
<path d="M0 0 C0.598125 0.20625 1.19625 0.4125 1.8125 0.625 C1.4825 0.79 1.4825 0.79 -0.1875 1.625 C-0.1875 3.605 -0.1875 5.585 -0.1875 7.625 C-2.1675 7.625 -4.1475 7.625 -6.1875 7.625 C-5.875 4.75 -5.875 4.75 -5.1875 1.625 C-2.1875 -0.375 -2.1875 -0.375 0 0 Z " fill="#285266" transform="translate(340.1875,33.375)"/>
<path d="M0 0 C0.4021875 0.0103125 0.4021875 0.0103125 2.4375 0.0625 C2.81968767 1.71864657 3.15145102 3.38707024 3.4375 5.0625 C2.4375 6.0625 2.4375 6.0625 -0.125 6.125 C-0.5271875 6.1146875 -0.5271875 6.1146875 -2.5625 6.0625 C-2.94468767 4.40635343 -3.27645102 2.73792976 -3.5625 1.0625 C-2.5625 0.0625 -2.5625 0.0625 0 0 Z " fill="#285164" transform="translate(447.5625,23.9375)"/>
<path d="M0 0 C3.0625 0.25 3.0625 0.25 6.0625 2.25 C6.25 4.875 6.25 4.875 6.0625 7.25 C4.7425 6.92 3.4225 6.59 2.0625 6.25 C2.7225 6.25 3.3825 6.25 4.0625 6.25 C3.7325 4.93 3.4025 3.61 3.0625 2.25 C0.6875 2.5625 0.6875 2.5625 -1.9375 3.25 C-2.5975 4.24 -3.2575 5.23 -3.9375 6.25 C-4.5625 4.375 -4.5625 4.375 -4.9375 2.25 C-2.9375 0.25 -2.9375 0.25 0 0 Z " fill="#818181" transform="translate(334.9375,95.75)"/>
<path d="M0 0 C3.125 0.25 3.125 0.25 5 1.625 C6.125 3.25 6.125 3.25 6.125 5.25 C5.135 5.25 4.145 5.25 3.125 5.25 C2.795 4.59 2.465 3.93 2.125 3.25 C0.805 3.25 -0.515 3.25 -1.875 3.25 C-2.205 5.23 -2.535 7.21 -2.875 9.25 C-3.865 7.93 -4.855 6.61 -5.875 5.25 C-3.48114934 0.30270864 -3.48114934 0.30270864 0 0 Z " fill="#8F8F8F" transform="translate(289.875,95.75)"/>
<path d="M0 0 C-0.375 2.4375 -0.375 2.4375 -1 5 C-4.21451269 6.60725635 -7.43612536 6.05748185 -11 6 C-11 5.34 -11 4.68 -11 4 C-7.98968256 3.06576355 -7.13349732 2.95550089 -4 4 C-4 3.34 -4 2.68 -4 2 C-4.99 1.67 -5.98 1.34 -7 1 C-2.25 0 -2.25 0 0 0 Z " fill="#3B6577" transform="translate(347,51)"/>
<path d="M0 0 C2.31 0 4.62 0 7 0 C7.66 1.32 8.32 2.64 9 4 C5.7 4 2.4 4 -1 4 C-0.67 2.68 -0.34 1.36 0 0 Z " fill="#E9F5F6" transform="translate(257,38)"/>
<path d="M0 0 C0 0.99 0 1.98 0 3 C-0.66 3 -1.32 3 -2 3 C-2 4.32 -2 5.64 -2 7 C-3.65 7 -5.3 7 -7 7 C-6.625 4.0625 -6.625 4.0625 -6 1 C-4 0 -4 0 0 0 Z " fill="#19495E" transform="translate(481,34)"/>
<path d="M0 0 C0.433125 0.639375 0.86625 1.27875 1.3125 1.9375 C3 4 3 4 6 5 C6 5.66 6 6.32 6 7 C5.01 7.33 4.02 7.66 3 8 C3 7.34 3 6.68 3 6 C1.35 6.66 -0.3 7.32 -2 8 C-2.66 7.01 -3.32 6.02 -4 5 C-2.68 3.35 -1.36 1.7 0 0 Z " fill="#16475E" transform="translate(337,48)"/>
<path d="M0 0 C3.375 -0.125 3.375 -0.125 7 0 C7.66 0.66 8.32 1.32 9 2 C8.625 4.625 8.625 4.625 8 7 C7.34 6.67 6.68 6.34 6 6 C6 5.34 6 4.68 6 4 C4.68 4 3.36 4 2 4 C2 3.01 2 2.02 2 1 C1.34 0.67 0.68 0.34 0 0 Z " fill="#275367" transform="translate(374,34)"/>
<path d="M0 0 C0.66 0.99 1.32 1.98 2 3 C1.34 3 0.68 3 0 3 C0 3.66 0 4.32 0 5 C-2.64 5 -5.28 5 -8 5 C-7.375 3.0625 -7.375 3.0625 -6 1 C-2.875 0.25 -2.875 0.25 0 0 Z " fill="#C4C4C4" transform="translate(279,97)"/>
<path d="M0 0 C3.0625 0.3125 3.0625 0.3125 4.9375 1.8125 C5.30875 2.3075 5.68 2.8025 6.0625 3.3125 C2.77273192 4.40908936 1.34946233 4.11203138 -1.9375 3.3125 C-2.2675 5.6225 -2.5975 7.9325 -2.9375 10.3125 C-3.2675 10.3125 -3.5975 10.3125 -3.9375 10.3125 C-4.53482819 7.54985711 -4.9375 5.15217231 -4.9375 2.3125 C-2.9375 0.3125 -2.9375 0.3125 0 0 Z " fill="#8F8F8F" transform="translate(532.9375,95.6875)"/>
<path d="M0 0 C0.680625 0.185625 1.36125 0.37125 2.0625 0.5625 C5.57232191 1.08523943 8.52188063 0.61378577 12 0 C12 0.99 12 1.98 12 3 C8.3791799 4.01382963 4.72188582 4.49897691 1 5 C0.67 3.35 0.34 1.7 0 0 Z " fill="#194D64" transform="translate(255,52)"/>
<path d="M0 0 C0.4021875 0.0103125 0.4021875 0.0103125 2.4375 0.0625 C2.4375 1.7125 2.4375 3.3625 2.4375 5.0625 C-0.2025 5.3925 -2.8425 5.7225 -5.5625 6.0625 C-3.26136364 0.07954545 -3.26136364 0.07954545 0 0 Z " fill="#245164" transform="translate(317.5625,32.9375)"/>
<path d="M0 0 C0.66 0 1.32 0 2 0 C2 3.3 2 6.6 2 10 C0.68 9.67 -0.64 9.34 -2 9 C-2.25 3.375 -2.25 3.375 0 0 Z " fill="#0F4761" transform="translate(476,44)"/>
<path d="M0 0 C2.375 -0.125 2.375 -0.125 5 0 C5.66 0.66 6.32 1.32 7 2 C6.625 4.125 6.625 4.125 6 6 C3.69 6 1.38 6 -1 6 C-0.34 5.67 0.32 5.34 1 5 C1.33 4.01 1.66 3.02 2 2 C1.34 1.34 0.68 0.68 0 0 Z " fill="#C3D6DD" transform="translate(341,37)"/>
<path d="M0 0 C1.32 0.33 2.64 0.66 4 1 C4.33 2.65 4.66 4.3 5 6 C1.7 6 -1.6 6 -5 6 C-5 6.66 -5 7.32 -5 8 C-5.66 8 -6.32 8 -7 8 C-6.67 6.68 -6.34 5.36 -6 4 C-3.03 4.33 -0.06 4.66 3 5 C2.01 3.35 1.02 1.7 0 0 Z " fill="#7B7B7B" transform="translate(440,97)"/>
<path d="M0 0 C0.66 0.33 1.32 0.66 2 1 C0.63016497 4.16115776 0.0109362 4.9927092 -3 7 C-5.73990408 6.96856707 -8.28417854 6.44521663 -11 6 C-10.67 5.34 -10.34 4.68 -10 4 C-7.36 4 -4.72 4 -2 4 C-2 3.34 -2 2.68 -2 2 C-1.34 2 -0.68 2 0 2 C0 1.34 0 0.68 0 0 Z " fill="#1E4E64" transform="translate(298,49)"/>
<path d="M0 0 C1.875 0.625 1.875 0.625 4 2 C5.25 5.125 5.25 5.125 6 8 C3.36 8 0.72 8 -2 8 C-2.66 6.68 -3.32 5.36 -4 4 C-2.68 4.33 -1.36 4.66 0 5 C0 5.66 0 6.32 0 7 C0.99 7 1.98 7 3 7 C2.505 6.21625 2.01 5.4325 1.5 4.625 C0 2 0 2 0 0 Z " fill="#33596A" transform="translate(238,26)"/>
<path d="M0 0 C0.99 0.33 1.98 0.66 3 1 C0.9375 3.5 0.9375 3.5 -2 6 C-5.8125 6.3125 -5.8125 6.3125 -9 6 C-9.33 5.34 -9.66 4.68 -10 4 C-8.99088542 3.91861979 -8.99088542 3.91861979 -3.9453125 3.51171875 C-2 3 -2 3 0 0 Z " fill="#7E7E7E" transform="translate(467,104)"/>
<path d="M0 0 C0.33 0.66 0.66 1.32 1 2 C2.485 1.835 2.485 1.835 10 1 C10 1.99 10 2.98 10 4 C6.7 4 3.4 4 0 4 C-0.33 4.66 -0.66 5.32 -1 6 C-1.042721 4.33388095 -1.04063832 2.66617115 -1 1 C-0.67 0.67 -0.34 0.34 0 0 Z " fill="#7B7B7B" transform="translate(483,99)"/>
<path d="M0 0 C3.875 0.875 3.875 0.875 5 2 C5.25 4.375 5.25 4.375 5 7 C3.5 8.8125 3.5 8.8125 2 10 C2 9.34 2 8.68 2 8 C1.34 7.67 0.68 7.34 0 7 C0.66 7 1.32 7 2 7 C1.34 4.69 0.68 2.38 0 0 Z " fill="#888888" transform="translate(261,92)"/>
<path d="M0 0 C0 1.32 0 2.64 0 4 C-2.31 4.33 -4.62 4.66 -7 5 C-7 4.34 -7 3.68 -7 3 C-7.66 2.67 -8.32 2.34 -9 2 C-5.86501708 0.14223235 -3.62528568 -0.20140476 0 0 Z " fill="#1F4E64" transform="translate(574,51)"/>
<path d="M0 0 C0.33 0 0.66 0 1 0 C1.66 2.31 2.32 4.62 3 7 C4.32 7.33 5.64 7.66 7 8 C7 8.66 7 9.32 7 10 C4.25913944 10.22223194 2.56036279 10.34781139 0.1875 8.875 C-1.50813053 6.19768863 -1.2694875 4.09910627 -1 1 C-0.67 0.67 -0.34 0.34 0 0 Z " fill="#7D7D7D" transform="translate(528,100)"/>
<path d="M0 0 C0.66 1.32 1.32 2.64 2 4 C3 5 3 5 6.5625 5.0625 C7.1296875 5.0521875 7.1296875 5.0521875 10 5 C10 5.66 10 6.32 10 7 C8.35 7 6.7 7 5 7 C4.67 7.66 4.34 8.32 4 9 C4 8.34 4 7.68 4 7 C2.68 6.67 1.36 6.34 0 6 C0.33 7.32 0.66 8.64 1 10 C0.34 10 -0.32 10 -1 10 C-0.67 6.7 -0.34 3.4 0 0 Z " fill="#2F5A6C" transform="translate(255,46)"/>
<path d="M0 0 C1.875 0.1875 1.875 0.1875 4 1 C5.25 3.5625 5.25 3.5625 6 6 C4.02 6 2.04 6 0 6 C0 4.02 0 2.04 0 0 Z " fill="#E5F2F6" transform="translate(374,47)"/>
<path d="M0 0 C0.33 1.32 0.66 2.64 1 4 C-0.32 4.99 -1.64 5.98 -3 7 C-5 5.6875 -5 5.6875 -7 4 C-7 3.01 -7 2.02 -7 1 C-5.68 1 -4.36 1 -3 1 C-2.34 1.66 -1.68 2.32 -1 3 C-0.67 2.01 -0.34 1.02 0 0 Z " fill="#7F9DAA" transform="translate(383,37)"/>
<path d="M0 0 C1.65 0 3.3 0 5 0 C1.57611908 3.82669043 -1.00724943 5.72278474 -6 7 C-6 5.68 -6 4.36 -6 3 C-4.02 3 -2.04 3 0 3 C0 2.01 0 1.02 0 0 Z " fill="#EDFBFC" transform="translate(340,38)"/>
<path d="M0 0 C1.32 0 2.64 0 4 0 C4 1.98 4 3.96 4 6 C2.35 6 0.7 6 -1 6 C-1.042721 4.33388095 -1.04063832 2.66617115 -1 1 C-0.67 0.67 -0.34 0.34 0 0 Z " fill="#15465B" transform="translate(349,51)"/>
<path d="M0 0 C-0.33 0.99 -0.66 1.98 -1 3 C-1.33 3.165 -1.33 3.165 -3 4 C-3.4140625 7.16015625 -3.4140625 7.16015625 -3.625 11.0625 C-3.69976562 12.35285156 -3.77453125 13.64320312 -3.8515625 14.97265625 C-3.90054687 15.97167969 -3.94953125 16.97070312 -4 18 C-4.33 18 -4.66 18 -5 18 C-5.08074203 15.37438891 -5.1403623 12.75124324 -5.1875 10.125 C-5.21263672 9.37863281 -5.23777344 8.63226563 -5.26367188 7.86328125 C-5.29296875 5.6953125 -5.29296875 5.6953125 -5 2 C-2 0 -2 0 0 0 Z " fill="#E5F4F6" transform="translate(512,38)"/>
<path d="M0 0 C0.99 0 1.98 0 3 0 C2.67 2.97 2.34 5.94 2 9 C1.01 8.67 0.02 8.34 -1 8 C-1.04241723 5.66705225 -1.04092937 3.33297433 -1 1 C-0.67 0.67 -0.34 0.34 0 0 Z " fill="#15475C" transform="translate(371,45)"/>
<path d="M0 0 C0.33 0.66 0.66 1.32 1 2 C3.5625 2.625 3.5625 2.625 6 3 C6 3.33 6 3.66 6 4 C4.35 4 2.7 4 1 4 C0.67 5.32 0.34 6.64 0 8 C-0.99 7.01 -1.98 6.02 -3 5 C-1.125 1.125 -1.125 1.125 0 0 Z " fill="#E1F1F4" transform="translate(383,41)"/>
<path d="M0 0 C0.556875 0.020625 0.556875 0.020625 3.375 0.125 C1.01546906 2.48453094 -0.40395617 2.61641413 -3.625 3.125 C-3.955 5.105 -4.285 7.085 -4.625 9.125 C-4.955 9.125 -5.285 9.125 -5.625 9.125 C-5.75 5.75 -5.75 5.75 -5.625 2.125 C-3.625 0.125 -3.625 0.125 0 0 Z " fill="#858585" transform="translate(402.625,95.875)"/>
<path d="M0 0 C1.32 0 2.64 0 4 0 C4 1.65 4 3.3 4 5 C2.02 5 0.04 5 -2 5 C-1.125 1.125 -1.125 1.125 0 0 Z " fill="#1F4A5E" transform="translate(467,33)"/>
<path d="M0 0 C0.99 0 1.98 0 3 0 C3 0.99 3 1.98 3 3 C2.34 3 1.68 3 1 3 C1 6.96 1 10.92 1 15 C0.67 15 0.34 15 0 15 C0 11.7 0 8.4 0 5 C-0.66 5 -1.32 5 -2 5 C-2 4.34 -2 3.68 -2 3 C-1.34 3 -0.68 3 0 3 C0 2.01 0 1.02 0 0 Z " fill="#989898" transform="translate(519,93)"/>
<path d="M0 0 C0.33 1.65 0.66 3.3 1 5 C-2 6 -2 6 -4.1875 5.0625 C-4.785625 4.711875 -5.38375 4.36125 -6 4 C-2.25 0 -2.25 0 0 0 Z " fill="#10465E" transform="translate(242,48)"/>
<path d="M0 0 C0.33 2.31 0.66 4.62 1 7 C0.34 7 -0.32 7 -1 7 C-1 5.68 -1 4.36 -1 3 C-2.65 3.66 -4.3 4.32 -6 5 C-6 3.68 -6 2.36 -6 1 C-3 0 -3 0 0 0 Z " fill="#235569" transform="translate(243,45)"/>
<path d="M0 0 C2.375 -0.125 2.375 -0.125 5 0 C7 2 7 2 7 5 C5.02 5 3.04 5 1 5 C1.33 4.01 1.66 3.02 2 2 C1.34 1.34 0.68 0.68 0 0 Z " fill="#D3E3E8" transform="translate(565,37)"/>
<path d="M0 0 C2.31 0 4.62 0 7 0 C6.67 0.66 6.34 1.32 6 2 C5.01 1.67 4.02 1.34 3 1 C2.34 3.97 1.68 6.94 1 10 C0.67 10 0.34 10 0 10 C0 6.7 0 3.4 0 0 Z " fill="#64747E" transform="translate(102,121)"/>
<path d="M0 0 C3.35914922 2.23943282 3.81681636 3.26842083 5 7 C5 7.99 5 8.98 5 10 C1.125 8.25 1.125 8.25 0 6 C-0.039992 4.00039988 -0.04346799 1.99952758 0 0 Z " fill="#959595" transform="translate(396,100)"/>
<path d="M0 0 C1.65 0.33 3.3 0.66 5 1 C5 1.99 5 2.98 5 4 C2.69 4 0.38 4 -2 4 C-1.34 2.68 -0.68 1.36 0 0 Z " fill="#EEEEEE" transform="translate(386,98)"/>
<path d="M0 0 C0.99 0 1.98 0 3 0 C3.33 2.31 3.66 4.62 4 7 C3.01 7 2.02 7 1 7 C0.67 4.69 0.34 2.38 0 0 Z " fill="#8C8C8C" transform="translate(263,103)"/>
<path d="M0 0 C1.65 0 3.3 0 5 0 C4.67 1.32 4.34 2.64 4 4 C2.35 4 0.7 4 -1 4 C-0.67 2.68 -0.34 1.36 0 0 Z " fill="#F7F7F7" transform="translate(356,104)"/>
<path d="M0 0 C0.99 0.33 1.98 0.66 3 1 C2.34 2.65 1.68 4.3 1 6 C0.34 6 -0.32 6 -1 6 C-1.33 6.99 -1.66 7.98 -2 9 C-3 6 -3 6 -1.5625 2.8125 C-1.046875 1.884375 -0.53125 0.95625 0 0 Z " fill="#193340" transform="translate(162,65)"/>
<path d="M0 0 C1.32 0 2.64 0 4 0 C4.33 0.99 4.66 1.98 5 3 C4.67 3.66 4.34 4.32 4 5 C2.68 5 1.36 5 0 5 C-0.33 4.01 -0.66 3.02 -1 2 C-0.67 1.34 -0.34 0.68 0 0 Z " fill="#13475E" transform="translate(225,51)"/>
<path d="M0 0 C0.99 0.33 1.98 0.66 3 1 C3 1.66 3 2.32 3 3 C1.46875 4.2890625 1.46875 4.2890625 -0.5 5.625 C-1.1496875 6.07101563 -1.799375 6.51703125 -2.46875 6.9765625 C-2.9740625 7.31429687 -3.479375 7.65203125 -4 8 C-3.27633685 4.65569263 -2.18284504 2.65737657 0 0 Z " fill="#E1ECF0" transform="translate(25,104)"/>
<path d="M0 0 C1.65 0 3.3 0 5 0 C4.67 1.32 4.34 2.64 4 4 C2.35 3.67 0.7 3.34 -1 3 C-0.67 2.01 -0.34 1.02 0 0 Z " fill="#FBFBFB" transform="translate(385,104)"/>
<path d="M0 0 C1.65 0 3.3 0 5 0 C5 1.32 5 2.64 5 4 C3.02 4 1.04 4 -1 4 C-0.67 2.68 -0.34 1.36 0 0 Z " fill="#F1F1F1" transform="translate(356,98)"/>
<path d="M0 0 C0.66 0 1.32 0 2 0 C1.67 0.99 1.34 1.98 1 3 C0.77439324 5.39254576 0.59151405 7.78928123 0.4375 10.1875 C0.35371094 11.45980469 0.26992188 12.73210938 0.18359375 14.04296875 C0.12300781 15.01878906 0.06242187 15.99460937 0 17 C-0.33 17 -0.66 17 -1 17 C-1.02684679 14.35409986 -1.04676357 11.70846904 -1.0625 9.0625 C-1.07087891 8.30775391 -1.07925781 7.55300781 -1.08789062 6.77539062 C-1.09652441 4.85005687 -1.05224333 2.92464419 -1 1 C-0.67 0.67 -0.34 0.34 0 0 Z " fill="#E7F5F6" transform="translate(465,39)"/>
<path d="M0 0 C2.97 0 5.94 0 9 0 C9 0.66 9 1.32 9 2 C6.69 2.33 4.38 2.66 2 3 C2 2.34 2 1.68 2 1 C1.34 0.67 0.68 0.34 0 0 Z " fill="#174559" transform="translate(479,43)"/>
<path d="M0 0 C1.32 0 2.64 0 4 0 C3.1875 2.4375 3.1875 2.4375 2 5 C1.01 5.33 0.02 5.66 -1 6 C-1.042721 4.33388095 -1.04063832 2.66617115 -1 1 C-0.67 0.67 -0.34 0.34 0 0 Z " fill="#204E65" transform="translate(425,36)"/>
<path d="M0 0 C0.66 0.33 1.32 0.66 2 1 C1.360625 1.103125 0.72125 1.20625 0.0625 1.3125 C-0.2778125 1.4259375 -0.2778125 1.4259375 -2 2 C-2.33 2.99 -2.66 3.98 -3 5 C-3.66 5 -4.32 5 -5 5 C-5.33 5.99 -5.66 6.98 -6 8 C-6.33 6.68 -6.66 5.36 -7 4 C-4.61426621 2.10786631 -2.92824652 0.97608217 0 0 Z " fill="#2E5667" transform="translate(227,25)"/>
<path d="M0 0 C1.65 0 3.3 0 5 0 C4.25 5.75 4.25 5.75 2 8 C2 6.02 2 4.04 2 2 C1.34 2 0.68 2 0 2 C0 1.34 0 0.68 0 0 Z " fill="#2C505F" transform="translate(384,45)"/>
<path d="M0 0 C0.33 0 0.66 0 1 0 C1.268125 1.11375 1.53625 2.2275 1.8125 3.375 C3 7 3 7 6 9 C4.125 9.625 4.125 9.625 2 10 C0 8 0 8 -0.1953125 6.0546875 C-0.16276042 5.04557292 -0.16276042 5.04557292 0 0 Z " fill="#7F7F7F" transform="translate(368,100)"/>
<path d="M0 0 C0 0.99 0 1.98 0 3 C-2.31 3 -4.62 3 -7 3 C-6.67 2.01 -6.34 1.02 -6 0 C-3.42525708 -0.99667468 -2.51072708 -1.25536354 0 0 Z " fill="#A7B4B9" transform="translate(143,106)"/>
<path d="M0 0 C0 0.99 0 1.98 0 3 C-0.99 2.67 -1.98 2.34 -3 2 C-2.67 3.32 -2.34 4.64 -2 6 C-3.32 5.34 -4.64 4.68 -6 4 C-6 3.01 -6 2.02 -6 1 C-4.02 0.67 -2.04 0.34 0 0 Z " fill="#285366" transform="translate(319,51)"/>
<path d="M0 0 C1.10844919 3.32534757 0.84454356 5.62182575 0 9 C-0.99 8.34 -1.98 7.68 -3 7 C-3 5.68 -3 4.36 -3 3 C-2.01 3 -1.02 3 0 3 C0 2.01 0 1.02 0 0 Z " fill="#1A4A5E" transform="translate(254,46)"/>
<path d="M0 0 C1.66611905 -0.042721 3.33382885 -0.04063832 5 0 C6 1 6 1 6.0625 4.5625 C6.041875 5.696875 6.02125 6.83125 6 8 C5.71125 7.360625 5.4225 6.72125 5.125 6.0625 C4 4 4 4 2 3 C2 2.34 2 1.68 2 1 C1.34 0.67 0.68 0.34 0 0 Z " fill="#4A6F83" transform="translate(566,42)"/>
<path d="M0 0 C0.33 0.99 0.66 1.98 1 3 C1.99 3.33 2.98 3.66 4 4 C3.34 5.32 2.68 6.64 2 8 C2 7.34 2 6.68 2 6 C0.02 6 -1.96 6 -4 6 C-2.68 5.67 -1.36 5.34 0 5 C0 3.35 0 1.7 0 0 Z " fill="#B6CAD1" transform="translate(471,33)"/>
<path d="M0 0 C2.625 0.375 2.625 0.375 5 1 C4.67 1.495 4.67 1.495 3 4 C0.375 4.1875 0.375 4.1875 -2 4 C-2 2 -2 2 0 0 Z " fill="#15455A" transform="translate(566,33)"/>
<path d="M0 0 C2.31 0.33 4.62 0.66 7 1 C7 2.32 7 3.64 7 5 C6.01 4.34 5.02 3.68 4 3 C2.34450469 2.61500109 0.6777567 2.27206865 -1 2 C-0.67 1.34 -0.34 0.68 0 0 Z " fill="#114760" transform="translate(343,34)"/>
<path d="M0 0 C0.66 0 1.32 0 2 0 C1.125 3.875 1.125 3.875 0 5 C-1.66617115 5.04063832 -3.33388095 5.042721 -5 5 C-5 4.34 -5 3.68 -5 3 C-4.360625 2.87625 -3.72125 2.7525 -3.0625 2.625 C-2.7221875 2.521875 -2.7221875 2.521875 -1 2 C-0.67 1.34 -0.34 0.68 0 0 Z " fill="#828282" transform="translate(339,105)"/>
<path d="M0 0 C0.99 0.165 0.99 0.165 6 1 C6 1.66 6 2.32 6 3 C3.69 3 1.38 3 -1 3 C-0.67 2.01 -0.34 1.02 0 0 Z " fill="#F3F3F3" transform="translate(485,98)"/>
<path d="M0 0 C1.65 0 3.3 0 5 0 C5.33 0.99 5.66 1.98 6 3 C3.69 3 1.38 3 -1 3 C-0.67 2.01 -0.34 1.02 0 0 Z " fill="#F4F4F4" transform="translate(333,98)"/>
<path d="M0 0 C1.67542976 0.28604898 3.34385343 0.61781233 5 1 C3.1875 3 3.1875 3 1 5 C0.01 5 -0.98 5 -2 5 C-1.125 1.125 -1.125 1.125 0 0 Z " fill="#949494" transform="translate(384,96)"/>
<path d="M0 0 C2.31 0 4.62 0 7 0 C6.67 0.99 6.34 1.98 6 3 C3.69 3 1.38 3 -1 3 C-0.67 2.01 -0.34 1.02 0 0 Z " fill="#929292" transform="translate(385,91)"/>
<path d="M0 0 C1.98 0 3.96 0 6 0 C5.01 1.65 4.02 3.3 3 5 C2.01 4.67 1.02 4.34 0 4 C0 2.68 0 1.36 0 0 Z " fill="#204757" transform="translate(219,47)"/>
<path d="M0 0 C1.32 0.33 2.64 0.66 4 1 C3.38722388 3.96175123 2.74627478 5.38058783 1 8 C0.67 5.36 0.34 2.72 0 0 Z " fill="#335C6F" transform="translate(477,43)"/>
<path d="M0 0 C2.97 0 5.94 0 9 0 C9 0.66 9 1.32 9 2 C6.1875 2.6875 6.1875 2.6875 3 3 C2.01 2.01 1.02 1.02 0 0 Z " fill="#1A4358" transform="translate(339,43)"/>
<path d="M0 0 C0.99 0 1.98 0 3 0 C3.6875 1.8125 3.6875 1.8125 4 4 C2.5625 5.75 2.5625 5.75 1 7 C0.67 4.69 0.34 2.38 0 0 Z " fill="#0F4761" transform="translate(278,27)"/>
<path d="M0 0 C0.825 0.165 0.825 0.165 5 1 C5.33 1.99 5.66 2.98 6 4 C4.35 4 2.7 4 1 4 C0.67 2.68 0.34 1.36 0 0 Z " fill="#45606E" transform="translate(139,132)"/>
<path d="M0 0 C0.33 1.32 0.66 2.64 1 4 C0.01 4 -0.98 4 -2 4 C-2.33 3.34 -2.66 2.68 -3 2 C-3.99 1.34 -4.98 0.68 -6 0 C-3.50907189 -1.24546405 -2.58919267 -0.7767578 0 0 Z " fill="#878787" transform="translate(295,97)"/>
<path d="M0 0 C3.125 -0.1875 3.125 -0.1875 6 0 C6.33 0.66 6.66 1.32 7 2 C5.515 2.165 5.515 2.165 -2 3 C-1.34 2.01 -0.68 1.02 0 0 Z " fill="#828282" transform="translate(272,96)"/>
<path d="M0 0 C1.65 0 3.3 0 5 0 C5.66 1.32 6.32 2.64 7 4 C6.05125 3.835 5.1025 3.67 4.125 3.5 C1 3 1 3 -1 3 C-0.67 2.01 -0.34 1.02 0 0 Z " fill="#7E7E7E" transform="translate(499,96)"/>
<path d="M0 0 C0 0.66 0 1.32 0 2 C-2.64 2 -5.28 2 -8 2 C-8 1.34 -8 0.68 -8 0 C-5.13822943 -1.43088528 -3.06624227 -0.59991697 0 0 Z " fill="#305768" transform="translate(344,55)"/>
<path d="M0 0 C0.763125 0.20625 1.52625 0.4125 2.3125 0.625 C1.9825 1.285 1.6525 1.945 1.3125 2.625 C-1.75 3.25 -1.75 3.25 -4.6875 3.625 C-5.0175 2.965 -5.3475 2.305 -5.6875 1.625 C-2.6875 -0.375 -2.6875 -0.375 0 0 Z " fill="#224F65" transform="translate(238.6875,53.375)"/>
<path d="M0 0 C0.66 0.33 1.32 0.66 2 1 C1.34 2.65 0.68 4.3 0 6 C-0.99 6 -1.98 6 -3 6 C-1.125 1.125 -1.125 1.125 0 0 Z " fill="#2D566A" transform="translate(543,49)"/>
<path d="M0 0 C0.33 0.66 0.66 1.32 1 2 C1.99 2 2.98 2 4 2 C3.67 3.32 3.34 4.64 3 6 C2.34 6 1.68 6 1 6 C0.34 4.35 -0.32 2.7 -1 1 C-0.67 0.67 -0.34 0.34 0 0 Z " fill="#114760" transform="translate(374,40)"/>
<path d="M0 0 C0.33 0 0.66 0 1 0 C1.3125 2.3125 1.3125 2.3125 1 5 C-1.5 6.8125 -1.5 6.8125 -4 8 C-2.87548273 5.0280615 -1.77706209 2.66559313 0 0 Z " fill="#EAF6F8" transform="translate(429,37)"/>
<path d="M0 0 C1.98 0 3.96 0 6 0 C5.34 0.33 5.34 0.33 2 2 C2 3.32 2 4.64 2 6 C1.01 5.67 0.02 5.34 -1 5 C-0.67 3.35 -0.34 1.7 0 0 Z " fill="#CBDEE4" transform="translate(228,30)"/>
<path d="M0 0 C2.64 0 5.28 0 8 0 C8.33 0.99 8.66 1.98 9 3 C7.68 3 6.36 3 5 3 C5 2.34 5 1.68 5 1 C3.35 1.33 1.7 1.66 0 2 C0 1.34 0 0.68 0 0 Z " fill="#254A59" transform="translate(405,25)"/>
</svg>
